<?xml version="1.0" encoding="utf-8"?>
<!-- Generator: Adobe Illustrator 18.0.0, SVG Export Plug-In . SVG Version: 6.00 Build 0)  -->
<!DOCTYPE svg PUBLIC "-//W3C//DTD SVG 1.1//EN" "http://www.w3.org/Graphics/SVG/1.1/DTD/svg11.dtd">
<svg version="1.1" id="Laag_1" xmlns="http://www.w3.org/2000/svg" xmlns:xlink="http://www.w3.org/1999/xlink" x="0px" y="0px"
	 viewBox="0 0 536.7 89.3" enable-background="new 0 0 536.7 89.3" xml:space="preserve">
<rect x="-2.2" y="-1" display="none" width="540.7" height="92.1"/>
<g>
	<path fill="#003676" d="M210.5,8.2c0-4.5,3.6-8.2,8.1-8.2c4.5,0,8.2,3.7,8.2,8.2c0,4.5-3.7,8.2-8.2,8.2
		C214.1,16.4,210.5,12.7,210.5,8.2z"/>
	<path fill="#003676" d="M76.6,20C61.8,20,51,30.7,51,45.5s10.8,25.5,25.6,25.5c14.9,0,25.8-10.7,25.8-25.5S91.5,20,76.6,20z
		 M76.6,59c-7,0-11.9-5.6-11.9-13.5c0-8,4.9-13.5,11.9-13.5c7.1,0,12,5.6,12,13.5C88.6,53.6,83.8,59,76.6,59z"/>
	<path fill="#003676" d="M194.7,46.8c-0.6-1.1-1.2-2-1.9-2.7l-0.5-0.5l0.5-0.5c0.7-0.7,1.4-1.6,2.1-2.6L207.9,21H192l-9.9,15.3
		c-0.6,0.8-1.7,1.2-3.4,1.2h-2.2V8.7c0-5.8-3.6-6.6-7.5-6.6h-6.6l0,68.1h14.1V49.8h1.3c1.6,0,2.7,0.2,3.2,1.1l7.8,14.7
		c2.2,4,4.3,4.7,8.4,4.7h10.8l-8-13.3L194.7,46.8z"/>
	<path fill="#003676" d="M263.2,19.9c-7.2,0-11.8,3.2-14.3,5.9l-0.8,0.9l-0.3-1.2c-0.8-2.9-3.3-4.5-7.1-4.5h-6.3l0,49.2h14V47.5
		c0-2.2,0.3-4.1,0.9-5.9c1.6-5.3,5.9-8.6,11.3-8.6c4.4,0,6.1,2.3,6.1,8.3v21.4c0,5.1,2.4,7.5,7.4,7.5h6.7l0-31.3
		C280.7,26.5,274.7,19.9,263.2,19.9z"/>
	<path fill="#003676" d="M218.8,21h-6.6l0,38h0v11.1h7.1c0.1,0,0.2,0,0.3,0l3.3,0h3.3v0h0l0-41.7C226.2,23.5,223.8,21,218.8,21z"/>
	<path fill="#003676" d="M131.7,20C116.8,20,106,30.7,106,45.5s10.8,25.5,25.7,25.5c14.9,0,25.7-10.7,25.7-25.5S146.6,20,131.7,20z
		 M131.7,59c-7,0-11.9-5.6-11.9-13.5c0-8,4.9-13.5,11.9-13.5c7.1,0,12,5.6,12,13.5C143.7,53.6,138.8,59,131.7,59z"/>
	<path fill="#003676" d="M327.2,20.9c-2.7,0-4.7,1.1-5.7,3l-0.4,0.8l-0.6-0.6c-2.3-2-6.3-4.3-12.9-4.3c-13.1,0-21.9,9.8-21.9,24.5
		c0,14.6,9.1,24.9,22.2,24.9c4.5,0,8-1,10.8-3.2l1.1-0.8v1.4c0,6.6-4.2,10.2-11.9,10.2c-3.7,0-7.1-0.9-9.4-1.7
		c-3-0.9-4.7-0.2-5.9,2.8l-1.1,2.8l-1.6,4l1,0.5c4.9,2.6,11.3,4.2,17.1,4.2c11.9,0,25.9-6.1,25.9-23.3l0-45.1H327.2z M310.3,56.9
		c-7.7,0-10.4-6.7-10.4-12.9c0-2.8,0.7-11.8,9.6-11.8c4.5,0,10.4,1.3,10.4,12.2C319.9,54.7,314.7,56.9,310.3,56.9z"/>
	<path fill="#003676" d="M39,35.3L37,34.1l1.8-1.5c2.1-1.8,5.6-5.8,5.6-12.8c0-10.7-8.3-17.6-21.1-17.6H8.6v0H6.9
		C3.1,2.3,0,5.4,0,9.2v3.3v50.6v6.8h6.7c0,0,0,0,0,0l16.8,0c14.3,0,23.5-7.8,23.5-19.8C47,43.7,44,38.1,39,35.3z M13,21.7L13,21.7
		l0-3.6c0-3.1,1.3-4.6,4.2-4.8h5.8c5,0,8,3,8,8c0,3.8-2,8.3-7.8,8.3H13V21.7z M24.4,58.5l-11.4,0V48.4v-3.6c0-2.9,1.1-4.4,3.6-4.8
		h7.8c5.6,0,9.1,3.5,9.1,9.2C33.6,55,30.1,58.5,24.4,58.5z"/>
</g>
<g>
	<path fill="#3EB5F1" d="M339.2,62.6c0-4.5,3.6-8.2,8.1-8.2c4.5,0,8.2,3.7,8.2,8.2c0,4.5-3.7,8.2-8.2,8.2
		C342.8,70.7,339.2,67.1,339.2,62.6z"/>
	<path fill="#3EB5F1" d="M432,20c-14.9,0-25.7,10.7-25.7,25.5s10.8,25.5,25.7,25.5c14.9,0,25.8-10.7,25.8-25.5S446.9,20,432,20z
		 M432,59c-7,0-11.9-5.6-11.9-13.5c0-8,4.9-13.5,11.9-13.5c7.1,0,12,5.6,12,13.5C444,53.6,439.2,59,432,59z"/>
	<path fill="#3EB5F1" d="M520.3,20.1c-5.8,0-11.4,2.7-15,7.3l-1,1.3l-0.8-1.4c-2.6-4.7-7.1-7.1-13.3-7.1c-6.5,0-10.9,3.6-12.9,5.8
		l-1.3,1.4l-0.5-1.9c-0.7-2.7-3.2-4.2-6.8-4.2h-5.9l-0.1,49h13.4V48.6c0-1.9,0.2-3.8,0.7-5.7c1.3-5.2,4.8-10.8,10.7-10.3
		c3.6,0.4,5.4,3.2,5.4,8.6v29h13.5V48.6c0-2.4,0.2-4.1,0.8-5.9c1.1-5,4.7-10.1,10.4-10.1c4.1,0,5.6,2.3,5.6,8.6V63
		c0,4.9,2.2,7.2,7.1,7.2h6.3l0-31.3C536.7,26.4,531.2,20.1,520.3,20.1z"/>
	<path fill="#3EB5F1" d="M398.6,53.2c0,0-5.8,6.1-13.4,6.1c-6.9,0-13.9-4.2-13.9-13.7c0-8.2,5.4-13.9,13.2-13.9
		c2.5,0,5.4,0.9,5.8,2.4l0.1,0.3c1,3.4,4.2,3.6,4.8,3.6l7.3,0v-6.4c0-8.4-10.8-11.5-18-11.5c-15.5,0-26.7,10.8-26.7,25.6
		c0,14.8,11.1,25.6,26.4,25.6c13.3,0,20.5-8.7,20.6-8.8l0.4-0.5l-5.8-9.6L398.6,53.2z"/>
</g>
</svg>
