<?xml version="1.0" encoding="utf-8"?>
<!DOCTYPE svg PUBLIC "-//W3C//DTD SVG 1.1//EN" "http://www.w3.org/Graphics/SVG/1.1/DTD/svg11.dtd">
<svg version="1.1" baseProfile="full"
 xmlns="http://www.w3.org/2000/svg"
 xmlns:xlink="http://www.w3.org/1999/xlink"
 xmlns:ev="http://www.w3.org/2001/xml-events" 
  height="13px" 
  width="16px" 
>
<path fill="rgb( 0, 92, 169 )"
 d="M15.658,2.34899999999993 C15.432,2.11899999999991 15.151,2.00099999999998 14.819,2.00099999999998 C14.819,2.00099999999998 11.361,2.00099999999998 11.361,2.00099999999998 C11.361,2.00099999999998 11.361,0.54099999999994 11.361,0.54099999999994 C11.361,0.24199999999996 11.127,0 10.825,0 C10.825,0 10.766,0 10.766,0 C10.766,0 10.707,0 10.707,0 C10.707,0 5.29300000000001,0 5.29300000000001,0 C5.29300000000001,0 5.23399999999998,0 5.23399999999998,0 C5.23399999999998,0 5.17599999999999,0 5.17599999999999,0 C4.87299999999999,0 4.62900000000002,0.24199999999996 4.62900000000002,0.54099999999994 C4.62900000000002,0.54099999999994 4.62900000000002,2.00099999999998 4.62900000000002,2.00099999999998 C4.62900000000002,2.00099999999998 1.18099999999998,2.00099999999998 1.18099999999998,2.00099999999998 C0.84899999999999,2.00099999999998 0.56799999999998,2.11899999999991 0.34100000000001,2.34899999999993 C0.12,2.57400000000007 0,2.85200000000009 0,3.17100000000005 C0,3.17100000000005 0,11.8299999999999 0,11.8299999999999 C0,12.1489999999999 0.11399999999998,12.432 0.34100000000001,12.662 C0.56299999999999,12.886 0.84899999999999,13 1.18099999999998,13 C1.18099999999998,13 14.819,13 14.819,13 C15.151,13 15.437,12.886 15.658,12.662 C15.885,12.432 16,12.1489999999999 16,11.8299999999999 C16,11.8299999999999 16,3.17100000000005 16,3.17100000000005 C16,2.85200000000009 15.881,2.57400000000007 15.658,2.34899999999993 ZM6,1 C6,1 10,1 10,1 C10,1 10,2 10,2 C10,2 6,2 6,2 C6,2 6,1 6,1 ZM3,12 C3,12 1,12 1,12 C1,12 1,3 1,3 C1,3 3,3 3,3 C3,3 3,12 3,12 ZM12,12 C12,12 4,12 4,12 C4,12 4,3 4,3 C4,3 12,3 12,3 C12,3 12,12 12,12 ZM15,12 C15,12 13,12 13,12 C13,12 13,3 13,3 C13,3 15,3 15,3 C15,3 15,12 15,12 Z "/>
</svg>
