<?xml version="1.0" encoding="utf-8"?>
<!DOCTYPE svg PUBLIC "-//W3C//DTD SVG 1.1//EN" "http://www.w3.org/Graphics/SVG/1.1/DTD/svg11.dtd">
<svg version="1.1" baseProfile="full"
 xmlns="http://www.w3.org/2000/svg"
 xmlns:xlink="http://www.w3.org/1999/xlink"
 xmlns:ev="http://www.w3.org/2001/xml-events" 
  height="13px" 
  width="18px" 
>
<path fill="rgb( 0, 92, 169 )"
 d="M16.98,10.3630000000001 C16.98,9.30099999999993 16.346,8.33300000000008 15.35,7.95700000000011 C15.35,7.95700000000011 9.71699999999998,5.77800000000002 9.71699999999998,5.77800000000002 C9.71699999999998,5.77800000000002 9.70000000000005,5.05799999999999 9.70000000000005,5.05799999999999 C10.778,4.75 11.573,3.75700000000006 11.573,2.5809999999999 C11.573,1.16000000000008 10.4160000000001,0.00299999999993 8.99300000000005,0.00299999999993 C8.29200000000003,0.00299999999993 7.32299999999998,0.5440000000001 6.79700000000003,1.33999999999992 C6.66499999999996,1.53700000000003 6.654,1.798 6.76700000000005,2.00700000000006 C6.87900000000002,2.2170000000001 7.09799999999996,2.35400000000004 7.33600000000001,2.35400000000004 C7.33600000000001,2.35400000000004 7.34799999999996,2.35400000000004 7.34799999999996,2.35400000000004 C7.57100000000003,2.35400000000004 7.77700000000004,2.22800000000007 7.88699999999994,2.03400000000011 C8.11800000000005,1.62200000000007 8.60500000000002,1.33500000000004 8.99400000000003,1.33500000000004 C9.68200000000002,1.33500000000004 10.244,1.89699999999993 10.244,2.58400000000006 C10.244,3.27299999999991 9.68200000000002,3.83300000000008 8.99400000000003,3.83300000000008 C8.99300000000005,3.83300000000008 8.99199999999996,3.83300000000008 8.99099999999999,3.83300000000008 C8.827,3.83300000000008 8.66899999999998,3.89599999999996 8.55499999999995,4.01199999999994 C8.43899999999996,4.12899999999991 8.375,4.28600000000006 8.37699999999995,4.45000000000005 C8.37699999999995,4.45000000000005 8.39200000000005,5.77700000000004 8.39200000000005,5.77700000000004 C8.39200000000005,5.77700000000004 2.64400000000001,7.95700000000011 2.64400000000001,7.95700000000011 C1.649,8.33300000000008 0.99900000000002,9.29899999999998 0.99900000000002,10.3630000000001 C0.99900000000002,10.3630000000001 0.99900000000002,10.7739999999999 0.99900000000002,10.7739999999999 C0.99900000000002,11.9649999999999 1.93200000000002,12.9949999999999 3.125,12.9949999999999 C3.125,12.9949999999999 14.865,12.9949999999999 14.865,12.9949999999999 C16.056,12.9949999999999 17.002,11.97 17.002,10.779 C17.002,10.779 16.98,10.3630000000001 16.98,10.3630000000001 ZM15.673,10.7729999999999 C15.673,11.231 15.322,11.6559999999999 14.864,11.6559999999999 C14.864,11.6559999999999 3.125,11.6559999999999 3.125,11.6559999999999 C2.66700000000003,11.6559999999999 2.322,11.231 2.322,10.7729999999999 C2.322,10.7729999999999 2.322,10.3620000000001 2.322,10.3620000000001 C2.322,9.84899999999993 2.63099999999997,9.38100000000009 3.11099999999999,9.20000000000005 C3.11099999999999,9.20000000000005 9.00199999999995,6.971 9.00199999999995,6.971 C9.00199999999995,6.971 14.884,9.20000000000005 14.884,9.20000000000005 C15.366,9.38100000000009 15.673,9.84899999999993 15.673,10.3620000000001 C15.673,10.3620000000001 15.673,10.7729999999999 15.673,10.7729999999999 C15.673,10.7729999999999 15.673,10.7729999999999 15.673,10.7729999999999 Z "/>
</svg>
