<?xml version="1.0" encoding="utf-8"?>
<!DOCTYPE svg PUBLIC "-//W3C//DTD SVG 1.1//EN" "http://www.w3.org/Graphics/SVG/1.1/DTD/svg11.dtd">
<svg version="1.1" baseProfile="full"
 xmlns="http://www.w3.org/2000/svg"
 xmlns:xlink="http://www.w3.org/1999/xlink"
 xmlns:ev="http://www.w3.org/2001/xml-events" 
  height="13px" 
  width="18px" 
>
<path fill="rgb( 0, 92, 169 )"
 d="M16.8680000000001,4.16300000000001 C16.7619999999999,4.27299999999991 16.624,4.327 16.486,4.327 C16.347,4.327 16.2089999999999,4.27299999999991 16.104,4.16300000000001 C14.211,2.20100000000002 11.696,1.11999999999989 9.01999999999998,1.11999999999989 C6.34400000000005,1.11999999999989 3.82799999999997,2.20100000000002 1.93600000000004,4.16300000000001 C1.72500000000002,4.38200000000006 1.38300000000004,4.38200000000006 1.17200000000003,4.16300000000001 C0.96100000000001,3.94399999999996 0.96100000000001,3.58999999999992 1.17200000000003,3.37100000000009 C3.26800000000003,1.19699999999989 6.05499999999995,0 9.01999999999998,0 C11.984,0 14.771,1.19699999999989 16.8680000000001,3.37100000000009 C17.079,3.58999999999992 17.079,3.94399999999996 16.8680000000001,4.16300000000001 ZM15.146,5.15599999999995 C15.357,5.375 15.357,5.73000000000002 15.146,5.94800000000009 C15.04,6.05799999999999 14.902,6.11300000000006 14.764,6.11300000000006 C14.625,6.11300000000006 14.487,6.05799999999999 14.3819999999999,5.94800000000009 C11.425,2.88300000000004 6.61500000000001,2.88300000000004 3.65800000000002,5.94800000000009 C3.447,6.16699999999992 3.10500000000002,6.16699999999992 2.89400000000001,5.94800000000009 C2.68299999999999,5.73000000000002 2.68299999999999,5.375 2.89400000000001,5.15599999999995 C6.27200000000005,1.654 11.768,1.654 15.146,5.15599999999995 ZM9.01999999999998,5.31600000000003 C10.615,5.31600000000003 12.115,5.96000000000004 13.2430000000001,7.13000000000011 C13.454,7.34899999999993 13.454,7.70299999999997 13.2430000000001,7.92200000000003 C13.032,8.14100000000008 12.6900000000001,8.14100000000008 12.479,7.92200000000003 C11.555,6.96399999999994 10.326,6.43599999999992 9.01999999999998,6.43599999999992 C7.71299999999997,6.43599999999992 6.48400000000004,6.96399999999994 5.56100000000004,7.92200000000003 C5.45500000000004,8.03099999999995 5.31700000000001,8.08600000000001 5.17899999999997,8.08600000000001 C5.03999999999996,8.08600000000001 4.90200000000004,8.03199999999993 4.79700000000003,7.92200000000003 C4.58600000000001,7.70299999999997 4.58600000000001,7.34899999999993 4.79700000000003,7.13000000000011 C5.92499999999995,5.96000000000004 7.42399999999998,5.31600000000003 9.01999999999998,5.31600000000003 ZM9.01999999999998,8.02500000000009 C10.342,8.02500000000009 11.418,9.14100000000008 11.418,10.5129999999999 C11.418,11.884 10.342,13 9.01999999999998,13 C7.697,13 6.62099999999998,11.884 6.62099999999998,10.5129999999999 C6.62099999999998,9.14100000000008 7.697,8.02500000000009 9.01999999999998,8.02500000000009 ZM9.01999999999998,11.8789999999999 C9.74699999999996,11.8789999999999 10.338,11.2660000000001 10.338,10.5129999999999 C10.338,9.75900000000001 9.74699999999996,9.14599999999996 9.01999999999998,9.14599999999996 C8.29300000000001,9.14599999999996 7.70100000000002,9.75900000000001 7.70100000000002,10.5129999999999 C7.70100000000002,11.2660000000001 8.29300000000001,11.8789999999999 9.01999999999998,11.8789999999999 Z "/>
</svg>
