<?xml version="1.0" encoding="utf-8"?>
<!DOCTYPE svg PUBLIC "-//W3C//DTD SVG 1.1//EN" "http://www.w3.org/Graphics/SVG/1.1/DTD/svg11.dtd">
<svg version="1.1" baseProfile="full"
 xmlns="http://www.w3.org/2000/svg"
 xmlns:xlink="http://www.w3.org/1999/xlink"
 xmlns:ev="http://www.w3.org/2001/xml-events" 
  height="18px" 
  width="17px" 
>
<path fill="rgb( 0, 92, 169 )"
 d="M15.405,14.217 C15.405,14.217 12.948,12.951 12.948,12.951 C12.804,12.877 12.628,12.862 12.505,12.862 C12.402,12.862 12.142,12.875 11.955,12.9930000000001 C11.955,12.9930000000001 10.821,13.71 10.821,13.71 C10.239,14.078 9.29899999999998,14.122 8.68299999999999,13.808 C8.68299999999999,13.808 6.99900000000002,12.949 6.99900000000002,12.949 C6.83999999999998,12.8680000000001 6.637,12.856 6.52999999999997,12.856 C6.42599999999999,12.856 6.16300000000001,12.8680000000001 5.97300000000001,12.981 C5.97300000000001,12.981 4.69900000000001,13.739 4.69900000000001,13.739 C4.10899999999998,14.091 3.15800000000002,14.101 2.55900000000003,13.76 C2.55900000000003,13.76 0.38900000000001,12.525 0.38900000000001,12.525 C0.10500000000002,12.364 0.00200000000001,11.996 0.15899999999999,11.705 C0.31099999999998,11.424 0.68200000000002,11.311 0.95800000000003,11.4690000000001 C0.95800000000003,11.4690000000001 3.12900000000002,12.703 3.12900000000002,12.703 C3.29000000000002,12.795 3.49799999999999,12.809 3.60700000000003,12.809 C3.72300000000001,12.809 3.94099999999997,12.794 4.10899999999998,12.6950000000001 C4.10899999999998,12.6950000000001 5.38299999999998,11.937 5.38299999999998,11.937 C5.96499999999998,11.59 6.91500000000002,11.559 7.52100000000002,11.8680000000001 C7.52100000000002,11.8680000000001 9.20600000000002,12.727 9.20600000000002,12.727 C9.351,12.8 9.52699999999999,12.8150000000001 9.64800000000002,12.8150000000001 C9.75299999999999,12.8150000000001 10.016,12.802 10.204,12.682 C10.204,12.682 11.338,11.965 11.338,11.965 C11.921,11.596 12.861,11.555 13.476,11.873 C13.476,11.873 15.932,13.138 15.932,13.138 C16.222,13.287 16.34,13.651 16.194,13.949 C16.053,14.2380000000001 15.692,14.366 15.405,14.217 ZM15.414,11.329 C15.414,11.329 12.958,10.064 12.958,10.064 C12.811,9.98699999999997 12.631,9.97199999999998 12.506,9.97199999999998 C12.401,9.97199999999998 12.135,9.98500000000001 11.944,10.105 C11.944,10.105 10.81,10.823 10.81,10.823 C10.233,11.187 9.30200000000002,11.231 8.69200000000001,10.919 C8.69200000000001,10.919 7.00799999999998,10.061 7.00799999999998,10.061 C6.846,9.97799999999995 6.63900000000001,9.96600000000001 6.53100000000001,9.96600000000001 C6.42500000000001,9.96600000000001 6.15699999999998,9.97799999999995 5.96199999999999,10.093 C5.96199999999999,10.093 4.68900000000002,10.851 4.68900000000002,10.851 C4.10300000000001,11.2 3.16199999999998,11.2089999999999 2.56900000000002,10.872 C2.56900000000002,10.872 0.399,9.63800000000003 0.399,9.63800000000003 C0.118,9.47799999999995 0.01499999999999,9.11000000000001 0.16800000000001,8.81600000000003 C0.315,8.53599999999994 0.67599999999999,8.42100000000005 0.94799999999998,8.57600000000002 C0.94799999999998,8.57600000000002 3.118,9.80999999999995 3.118,9.80999999999995 C3.28199999999998,9.904 3.49400000000003,9.91700000000003 3.60700000000003,9.91700000000003 C3.77199999999999,9.91700000000003 3.92899999999997,9.88800000000003 4.05799999999999,9.83100000000002 C4.05799999999999,9.83100000000002 5.39400000000001,9.04300000000001 5.39400000000001,9.04300000000001 C5.971,8.69899999999996 6.91199999999998,8.66800000000001 7.512,8.97500000000002 C7.512,8.97500000000002 9.19600000000003,9.83299999999997 9.19600000000003,9.83299999999997 C9.34300000000002,9.90800000000002 9.52199999999999,9.923 9.64699999999999,9.923 C9.75400000000002,9.923 10.022,9.90999999999997 10.215,9.78899999999999 C10.215,9.78899999999999 11.349,9.07100000000003 11.349,9.07100000000003 C11.44,9.01300000000003 11.549,8.96199999999999 11.692,8.90899999999999 C12.181,8.72699999999998 12.745,8.71900000000005 13.214,8.87599999999998 C13.312,8.90899999999999 13.396,8.94299999999998 13.467,8.98000000000002 C13.467,8.98000000000002 15.923,10.246 15.923,10.246 C16.21,10.393 16.327,10.7569999999999 16.185,11.056 C16.047,11.345 15.695,11.474 15.414,11.329 ZM11.861,7.72000000000003 C11.861,7.72000000000003 11.861,7.32399999999996 11.861,7.32399999999996 C11.861,7.32399999999996 4.875,7.32399999999996 4.875,7.32399999999996 C4.875,7.32399999999996 4.875,8.07600000000002 4.875,8.07600000000002 C4.868,8.08100000000002 4.86099999999999,8.08399999999995 4.85399999999999,8.08799999999997 C4.85399999999999,8.08799999999997 3.69900000000001,8.77499999999998 3.69900000000001,8.77499999999998 C3.69900000000001,8.77499999999998 3.69900000000001,1.51800000000003 3.69900000000001,1.51800000000003 C3.69900000000001,1.18399999999997 3.96199999999999,0.91399999999999 4.28699999999998,0.91399999999999 C4.61099999999999,0.91399999999999 4.875,1.18399999999997 4.875,1.51800000000003 C4.875,1.51800000000003 4.875,2.93700000000001 4.875,2.93700000000001 C4.875,2.93700000000001 11.861,2.93700000000001 11.861,2.93700000000001 C11.861,2.93700000000001 11.861,1.51800000000003 11.861,1.51800000000003 C11.861,1.18399999999997 12.125,0.91399999999999 12.45,0.91399999999999 C12.774,0.91399999999999 13.038,1.18399999999997 13.038,1.51800000000003 C13.038,1.51800000000003 13.038,7.702 13.038,7.702 C12.646,7.63800000000003 12.251,7.64499999999998 11.861,7.72000000000003 ZM11.861,4.14400000000001 C11.861,4.14400000000001 4.875,4.14400000000001 4.875,4.14400000000001 C4.875,4.14400000000001 4.875,6.11599999999999 4.875,6.11599999999999 C4.875,6.11599999999999 11.861,6.11599999999999 11.861,6.11599999999999 C11.861,6.11599999999999 11.861,4.14400000000001 11.861,4.14400000000001 ZM0.959,14.359 C0.959,14.359 3.12900000000002,15.593 3.12900000000002,15.593 C3.29000000000002,15.6849999999999 3.49799999999999,15.699 3.60700000000003,15.699 C3.72300000000001,15.699 3.94200000000001,15.683 4.11000000000001,15.5839999999999 C4.11000000000001,15.5839999999999 5.38400000000001,14.826 5.38400000000001,14.826 C5.96600000000001,14.479 6.91500000000002,14.448 7.52199999999999,14.7569999999999 C7.52199999999999,14.7569999999999 9.20600000000002,15.616 9.20600000000002,15.616 C9.351,15.6900000000001 9.52600000000001,15.705 9.64800000000002,15.705 C9.75299999999999,15.705 10.016,15.691 10.205,15.572 C10.205,15.572 11.338,14.855 11.338,14.855 C11.921,14.486 12.862,14.4450000000001 13.476,14.763 C13.476,14.763 15.932,16.028 15.932,16.028 C16.222,16.177 16.34,16.5410000000001 16.194,16.8390000000001 C16.053,17.129 15.691,17.255 15.405,17.1079999999999 C15.405,17.1079999999999 12.948,15.841 12.948,15.841 C12.804,15.7670000000001 12.627,15.752 12.505,15.752 C12.402,15.752 12.142,15.765 11.955,15.883 C11.955,15.883 10.821,16.601 10.821,16.601 C10.239,16.968 9.298,17.0119999999999 8.68299999999999,16.698 C8.68299999999999,16.698 6.99799999999999,15.8390000000001 6.99799999999999,15.8390000000001 C6.839,15.758 6.637,15.746 6.52999999999997,15.746 C6.42599999999999,15.746 6.16399999999999,15.759 5.97300000000001,15.871 C5.97300000000001,15.871 4.69999999999999,16.629 4.69999999999999,16.629 C4.10899999999998,16.981 3.15699999999998,16.99 2.55900000000003,16.65 C2.55900000000003,16.65 0.38900000000001,15.415 0.38900000000001,15.415 C0.10500000000002,15.254 0.00200000000001,14.886 0.15899999999999,14.595 C0.31099999999998,14.314 0.68200000000002,14.201 0.959,14.359 Z "/>
</svg>
