<?xml version="1.0" encoding="utf-8"?>
<!DOCTYPE svg PUBLIC "-//W3C//DTD SVG 1.1//EN" "http://www.w3.org/Graphics/SVG/1.1/DTD/svg11.dtd">
<svg version="1.1" baseProfile="full"
 xmlns="http://www.w3.org/2000/svg"
 xmlns:xlink="http://www.w3.org/1999/xlink"
 xmlns:ev="http://www.w3.org/2001/xml-events" 
  height="16px" 
  width="16px" 
>
<path fill="rgb( 0, 92, 169 )"
 d="M14.062,15.999 C14.062,15.999 1.93799999999999,15.999 1.93799999999999,15.999 C0.86800000000005,15.999 0,15.1510000000001 0,14.104 C0,14.104 0,1.89599999999996 0,1.89599999999996 C0,0.84899999999993 0.86800000000005,0 1.93799999999999,0 C1.93799999999999,0 14.062,0 14.062,0 C15.1319999999999,0 16,0.84899999999993 16,1.89599999999996 C16,1.89599999999996 16,14.104 16,14.104 C16,15.1510000000001 15.1319999999999,15.999 14.062,15.999 ZM14.944,2.05600000000004 C14.944,1.47399999999993 14.462,1.00199999999995 13.867,1.00199999999995 C13.867,1.00199999999995 2.09299999999996,1.00199999999995 2.09299999999996,1.00199999999995 C1.49800000000005,1.00199999999995 1.01599999999996,1.47399999999993 1.01599999999996,2.05600000000004 C1.01599999999996,2.05600000000004 1.01599999999996,13.886 1.01599999999996,13.886 C1.01599999999996,14.4680000000001 1.49800000000005,14.9390000000001 2.09299999999996,14.9390000000001 C2.09299999999996,14.9390000000001 13.867,14.9390000000001 13.867,14.9390000000001 C14.462,14.9390000000001 14.805,14.3699999999999 14.805,13.8009999999999 C14.805,13.8009999999999 14.944,13.886 14.944,13.886 C14.944,13.886 14.944,2.05600000000004 14.944,2.05600000000004 ZM7.86800000000005,9.6389999999999 C7.58500000000004,9.6389999999999 7.21100000000001,9.62599999999998 7.00800000000004,9.59999999999991 C7.00800000000004,9.59999999999991 7.00800000000004,12.7619999999999 7.00800000000004,12.7619999999999 C7.00800000000004,12.7619999999999 5.00300000000004,12.7619999999999 5.00300000000004,12.7619999999999 C5.00300000000004,12.7619999999999 5.00300000000004,4.04999999999995 5.00300000000004,4.04999999999995 C5.63400000000001,3.94499999999994 6.601,3.86699999999996 7.91899999999998,3.86699999999996 C9.25099999999998,3.86699999999996 10.199,4.10200000000009 10.837,4.57400000000007 C11.446,5.01900000000001 11.856,5.75199999999995 11.856,6.61599999999999 C11.856,7.48000000000002 11.543,8.21299999999997 10.976,8.71000000000004 C10.239,9.35100000000011 9.14400000000001,9.6389999999999 7.86800000000005,9.6389999999999 ZM8.024,5.37200000000007 C7.58399999999995,5.37200000000007 7.16600000000005,5.41100000000006 7.00800000000004,5.45100000000002 C7.00800000000004,5.45100000000002 7.00800000000004,8.05500000000006 7.00800000000004,8.05500000000006 C7.18899999999996,8.09500000000003 7.54200000000003,8.10699999999997 7.85400000000004,8.10699999999997 C9.00199999999995,8.10699999999997 9.71100000000001,7.57099999999991 9.71100000000001,6.66799999999989 C9.71100000000001,5.85599999999999 9.101,5.37200000000007 8.024,5.37200000000007 Z "/>
</svg>
