<?xml version="1.0" encoding="utf-8"?>
<!DOCTYPE svg PUBLIC "-//W3C//DTD SVG 1.1//EN" "http://www.w3.org/Graphics/SVG/1.1/DTD/svg11.dtd">
<svg version="1.1" baseProfile="full"
 xmlns="http://www.w3.org/2000/svg"
 xmlns:xlink="http://www.w3.org/1999/xlink"
 xmlns:ev="http://www.w3.org/2001/xml-events" 
  height="14px" 
  width="16px" 
>
<path fill="rgb( 0, 92, 169 )"
 d="M0.01299999999992,12.056 C0.01299999999992,12.056 0.01299999999992,11.51 0.01299999999992,11.51 C0.01299999999992,7.83899999999994 2.59099999999989,4.75 6.05999999999995,3.89400000000001 C6.05999999999995,3.89400000000001 6.05999999999995,2.57799999999997 6.05999999999995,2.57799999999997 C5.73399999999992,2.39899999999989 5.52700000000004,2.1579999999999 5.52700000000004,1.846 C5.52700000000004,1.06899999999996 6.80199999999991,0.721 8.06600000000003,0.721 C9.32999999999993,0.721 10.605,1.06899999999996 10.605,1.846 C10.605,2.11500000000001 10.451,2.3309999999999 10.1990000000001,2.5 C10.1990000000001,2.5 10.1990000000001,3.96000000000004 10.1990000000001,3.96000000000004 C13.5419999999999,4.90000000000009 15.9970000000001,7.92800000000011 15.9970000000001,11.51 C15.9970000000001,11.51 15.9970000000001,12.056 15.9970000000001,12.056 C15.9970000000001,12.056 0.01299999999992,12.056 0.01299999999992,12.056 ZM8.06600000000003,1.53999999999996 C7.21100000000001,1.53999999999996 6.6389999999999,1.71599999999989 6.42599999999993,1.846 C6.5139999999999,1.90100000000007 6.66799999999989,1.96199999999999 6.87400000000002,2.01600000000008 C7.16499999999996,2.0920000000001 7.56600000000003,2.15200000000004 8.06600000000003,2.15200000000004 C8.56700000000001,2.15200000000004 8.9670000000001,2.0920000000001 9.25800000000004,2.01600000000008 C9.46499999999992,1.96199999999999 9.61799999999994,1.90100000000007 9.7059999999999,1.846 C9.49299999999994,1.71599999999989 8.92100000000005,1.53999999999996 8.06600000000003,1.53999999999996 ZM7.17200000000003,3.10899999999992 C7.17200000000003,3.10899999999992 7.17200000000003,3.70000000000005 7.17200000000003,3.70000000000005 C7.44599999999991,3.67200000000003 7.72399999999993,3.65699999999993 8.00500000000011,3.65699999999993 C8.37200000000007,3.65699999999993 8.73299999999995,3.68399999999997 9.08699999999999,3.73099999999999 C9.08699999999999,3.73099999999999 9.08699999999999,3.10899999999992 9.08699999999999,3.10899999999992 C9.08699999999999,3.10899999999992 7.17200000000003,3.10899999999992 7.17200000000003,3.10899999999992 ZM9.45399999999995,4.90300000000002 C8.98700000000008,4.80400000000009 8.50199999999995,4.75 8.00500000000011,4.75 C7.50800000000004,4.75 7.02399999999989,4.80400000000009 6.55600000000004,4.90300000000002 C3.63300000000004,5.52099999999996 1.39300000000003,7.97000000000003 1.14799999999991,10.963 C1.14799999999991,10.963 14.8620000000001,10.963 14.8620000000001,10.963 C14.617,7.97000000000003 12.3779999999999,5.52099999999996 9.45399999999995,4.90300000000002 ZM9.54999999999995,5.40300000000002 C9.7170000000001,5.40300000000002 9.88400000000001,5.44000000000005 10.0429999999999,5.5139999999999 C11.6279999999999,6.25 12.7159999999999,7.24399999999991 13.2760000000001,8.4670000000001 C13.4400000000001,8.82500000000005 13.4100000000001,9.2170000000001 13.1949999999999,9.54299999999989 C12.9770000000001,9.87599999999998 12.5909999999999,10.0899999999999 12.212,10.0899999999999 C11.8209999999999,10.0899999999999 11.4860000000001,9.86699999999996 11.3140000000001,9.49299999999994 C10.922,8.63599999999997 10.204,8.00099999999998 8.9860000000001,7.43499999999995 C8.53099999999995,7.22499999999991 8.30700000000002,6.78600000000006 8.41399999999999,6.31899999999996 C8.5329999999999,5.79600000000005 9.02099999999996,5.40300000000002 9.54999999999995,5.40300000000002 ZM9.3420000000001,6.69499999999994 C10.2909999999999,7.13499999999999 11.461,7.81400000000008 12.075,9.15699999999993 C12.1279999999999,9.27099999999996 12.182,9.27099999999996 12.212,9.27099999999996 C12.296,9.27099999999996 12.4200000000001,9.21199999999999 12.4949999999999,9.09799999999996 C12.557,9.00500000000011 12.5630000000001,8.9079999999999 12.5150000000001,8.80300000000011 C12.039,7.76299999999992 11.087,6.90599999999995 9.6869999999999,6.25600000000009 C9.6389999999999,6.23399999999992 9.59300000000007,6.22299999999996 9.54999999999995,6.22299999999996 C9.39499999999998,6.22299999999996 9.25800000000004,6.36500000000001 9.22800000000007,6.49800000000005 C9.20700000000011,6.59300000000007 9.23700000000008,6.64599999999996 9.3420000000001,6.69499999999994 ZM15.991,13.9970000000001 C15.991,13.9970000000001 0.00199999999995,13.9970000000001 0.00199999999995,13.9970000000001 C0.00199999999995,13.9970000000001 0.00199999999995,12.904 0.00199999999995,12.904 C0.00199999999995,12.904 15.991,12.904 15.991,12.904 C15.991,12.904 15.991,13.9970000000001 15.991,13.9970000000001 Z "/>
</svg>
