<?xml version="1.0" encoding="utf-8"?>
<!DOCTYPE svg PUBLIC "-//W3C//DTD SVG 1.1//EN" "http://www.w3.org/Graphics/SVG/1.1/DTD/svg11.dtd">
<svg version="1.1" baseProfile="full"
 xmlns="http://www.w3.org/2000/svg"
 xmlns:xlink="http://www.w3.org/1999/xlink"
 xmlns:ev="http://www.w3.org/2001/xml-events" 
  height="15px" 
  width="18px" 
>
<path fill="rgb( 0, 92, 169 )"
 d="M16.492,2.03099999999995 C16.492,2.03099999999995 12.966,2.03099999999995 12.966,2.03099999999995 C12.966,2.03099999999995 12.966,3 12.966,3 C12.966,3 16.5,3 16.5,3 C16.776,3 17,3.22399999999993 17,3.5 C17,3.77600000000007 16.776,4 16.5,4 C16.5,4 12.966,4 12.966,4 C12.966,4 12.966,5 12.966,5 C12.966,5 16.5,5 16.5,5 C16.776,5 17,5.22399999999993 17,5.5 C17,5.77600000000007 16.776,6 16.5,6 C16.5,6 12.966,6 12.966,6 C12.966,6 12.966,7 12.966,7 C12.966,7 16.5,7 16.5,7 C16.776,7 17,7.22399999999993 17,7.5 C17,7.77600000000007 16.776,8 16.5,8 C16.5,8 12.966,8 12.966,8 C12.966,8 12.966,9 12.966,9 C12.966,9 16.5,9 16.5,9 C16.776,9 17,9.22399999999993 17,9.5 C17,9.77600000000007 16.776,10 16.5,10 C16.5,10 12.966,10 12.966,10 C12.966,10 12.966,11 12.966,11 C12.966,11 16.5,11 16.5,11 C16.776,11 17,11.2239999999999 17,11.5 C17,11.7760000000001 16.776,12 16.5,12 C16.5,12 12.966,12 12.966,12 C12.966,12 12.966,12.9570000000001 12.966,12.9570000000001 C12.966,12.9570000000001 16.492,12.9570000000001 16.492,12.9570000000001 C16.788,12.9570000000001 17.028,13.191 17.028,13.48 C17.028,13.77 16.788,14.0029999999999 16.492,14.0029999999999 C16.492,14.0029999999999 11.688,14.0029999999999 11.688,14.0029999999999 C11.3,14.0029999999999 10.9829999999999,13.7070000000001 10.9829999999999,13.329 C10.9829999999999,13.329 10.9829999999999,1.66000000000008 10.9829999999999,1.66000000000008 C10.9829999999999,1.28199999999993 11.3,0.9849999999999 11.688,0.9849999999999 C11.688,0.9849999999999 16.492,0.9849999999999 16.492,0.9849999999999 C16.788,0.9849999999999 17.028,1.21900000000005 17.028,1.50800000000004 C17.028,1.79700000000003 16.788,2.03099999999995 16.492,2.03099999999995 ZM7.03399999999999,10.261 C7.54999999999995,10.2439999999999 8.04200000000003,10.424 8.41800000000001,10.769 C8.79300000000001,11.1130000000001 9.01099999999997,11.5809999999999 9.02800000000002,12.085 C9.05899999999997,12.998 8.41800000000001,13.8009999999999 7.50400000000002,13.992 C7.39200000000005,14.0160000000001 7.27800000000002,14.03 7.16200000000003,14.0329999999999 C6.64700000000005,14.05 6.15499999999997,13.8689999999999 5.779,13.5250000000001 C5.40200000000004,13.1800000000001 5.18600000000004,12.713 5.16899999999998,12.2090000000001 C5.15499999999997,11.8099999999999 5.26999999999998,11.433 5.47900000000004,11.1179999999999 C5.47900000000004,11.1179999999999 4.54100000000005,9.54999999999995 4.54100000000005,9.54999999999995 C4.54100000000005,9.54999999999995 3.60199999999998,11.1179999999999 3.60199999999998,11.1179999999999 C3.81100000000004,11.433 3.92600000000004,11.8099999999999 3.91200000000003,12.2090000000001 C3.89499999999998,12.713 3.67899999999997,13.1800000000001 3.30200000000002,13.5250000000001 C2.92499999999995,13.8689999999999 2.43399999999997,14.05 1.91899999999998,14.0329999999999 C1.80399999999997,14.03 1.68899999999996,14.0160000000001 1.577,13.992 C0.66300000000001,13.8019999999999 0.02200000000005,12.999 0.053,12.085 C0.07000000000005,11.5809999999999 0.28700000000003,11.1130000000001 0.66300000000001,10.769 C1.03899999999999,10.424 1.53099999999995,10.2439999999999 2.04600000000005,10.261 C2.12300000000005,10.2619999999999 2.20000000000005,10.27 2.27499999999998,10.2809999999999 C2.27499999999998,10.2809999999999 3.62699999999995,8.02299999999991 3.62699999999995,8.02299999999991 C3.62699999999995,8.02299999999991 0.46400000000006,2.56799999999998 0.46400000000006,2.56799999999998 C0.31200000000001,2.31500000000005 0.25400000000002,2.02199999999993 0.30200000000002,1.75500000000011 C0.351,1.4860000000001 0.50099999999998,1.26600000000008 0.721,1.1400000000001 C0.721,1.1400000000001 0.96500000000003,1 0.96500000000003,1 C1.12400000000002,0.9079999999999 1.34299999999996,0.98399999999992 1.45399999999995,1.1690000000001 C1.45399999999995,1.1690000000001 4.53999999999996,6.49600000000009 4.53999999999996,6.49600000000009 C4.53999999999996,6.49600000000009 7.62699999999995,1.1690000000001 7.62699999999995,1.1690000000001 C7.73699999999997,0.98399999999992 7.95600000000002,0.90900000000011 8.11599999999999,1 C8.11599999999999,1 8.36000000000001,1.1400000000001 8.36000000000001,1.1400000000001 C8.57899999999995,1.26600000000008 8.72900000000004,1.4860000000001 8.77800000000002,1.75500000000011 C8.827,2.02199999999993 8.76800000000003,2.31500000000005 8.61699999999996,2.56799999999998 C8.61699999999996,2.56799999999998 5.45399999999995,8.02299999999991 5.45399999999995,8.02299999999991 C5.45399999999995,8.02299999999991 6.80499999999995,10.2809999999999 6.80499999999995,10.2809999999999 C6.88099999999997,10.27 6.95799999999997,10.2629999999999 7.03399999999999,10.261 ZM2.19000000000005,11.2059999999999 C2.13300000000004,11.194 2.07399999999996,11.1869999999999 2.01499999999999,11.1849999999999 C1.75199999999995,11.1769999999999 1.50199999999995,11.269 1.30999999999995,11.444 C1.11800000000005,11.6199999999999 1.00800000000004,11.8579999999999 0.99900000000002,12.116 C0.98400000000004,12.5809999999999 1.30999999999995,12.99 1.77499999999998,13.087 C1.83199999999999,13.0999999999999 1.89099999999996,13.106 1.95000000000005,13.1079999999999 C2.21199999999999,13.117 2.46299999999997,13.0239999999999 2.65499999999997,12.8489999999999 C2.84699999999998,12.673 2.95699999999999,12.4349999999999 2.96600000000001,12.1780000000001 C2.98099999999999,11.712 2.65499999999997,11.3040000000001 2.19000000000005,11.2059999999999 ZM4.51400000000001,7.44900000000007 C4.221,7.44900000000007 3.98199999999997,7.68200000000002 3.98199999999997,7.97000000000003 C3.98199999999997,8.25700000000006 4.22000000000003,8.49000000000001 4.51400000000001,8.49000000000001 C4.80799999999999,8.49000000000001 5.04700000000003,8.25700000000006 5.04700000000003,7.97000000000003 C5.04700000000003,7.68200000000002 4.80799999999999,7.44900000000007 4.51400000000001,7.44900000000007 ZM6.11500000000001,12.1780000000001 C6.12300000000005,12.4349999999999 6.23400000000004,12.673 6.42600000000004,12.8489999999999 C6.61699999999996,13.0239999999999 6.86800000000005,13.116 7.13,13.1079999999999 C7.18899999999996,13.106 7.24900000000002,13.0989999999999 7.30499999999995,13.087 C7.77099999999996,12.99 8.09699999999998,12.5809999999999 8.08100000000002,12.115 C8.07299999999998,11.8579999999999 7.96299999999997,11.6199999999999 7.77099999999996,11.444 C7.57899999999995,11.269 7.32899999999995,11.1759999999999 7.06600000000003,11.1849999999999 C7.00599999999997,11.1869999999999 6.94799999999998,11.194 6.88999999999999,11.2059999999999 C6.42499999999995,11.3030000000001 6.09900000000005,11.712 6.11500000000001,12.1780000000001 Z "/>
</svg>
