<?xml version="1.0" encoding="utf-8"?>
<!DOCTYPE svg PUBLIC "-//W3C//DTD SVG 1.1//EN" "http://www.w3.org/Graphics/SVG/1.1/DTD/svg11.dtd">
<svg version="1.1" baseProfile="full"
 xmlns="http://www.w3.org/2000/svg"
 xmlns:xlink="http://www.w3.org/1999/xlink"
 xmlns:ev="http://www.w3.org/2001/xml-events" 
  height="18px" 
  width="19px" 
>
<path fill="rgb( 0, 92, 169 )"
 d="M15.448,13.9499999999998 C15.75,14.3690000000001 15.93,14.8809999999999 15.93,15.4349999999999 C15.93,16.8490000000002 14.769,18 13.343,18 C12.114,18 11.086,17.145 10.822,16.0050000000001 C10.574,16.029 10.323,16.0419999999999 10.068,16.0419999999999 C9.81400000000002,16.0419999999999 9.56299999999999,16.029 9.31400000000002,16.0050000000001 C9.05200000000002,17.145 8.02199999999999,18 6.79399999999998,18 C5.36700000000002,18 4.20699999999999,16.8490000000002 4.20699999999999,15.4349999999999 C4.20699999999999,14.8809999999999 4.387,14.3690000000001 4.68900000000002,13.9499999999998 C3.12700000000001,12.518 1.923,10.741 2.13900000000001,8.20499999999993 C2.13600000000002,8.17200000000003 2.09399999999999,7.7199999999998 1.95800000000003,7.18199999999979 C1.78100000000001,6.47899999999981 1.43900000000002,5.64100000000008 0.80900000000003,5.41100000000006 C0.70299999999997,5.37199999999984 0.59100000000001,5.34400000000005 0.46699999999998,5.34400000000005 C0.20999999999998,5.34400000000005 0.00099999999998,5.13700000000017 0.00099999999998,4.88099999999986 C0.00099999999998,4.6260000000002 0.20999999999998,4.42000000000007 0.46699999999998,4.42000000000007 C2.33199999999999,4.42000000000007 2.85399999999999,7.01600000000008 3,8 C3,8 18,8 18,8 C18,8 18.549,11.1060000000002 15.448,13.9499999999998 ZM11.752,15.8620000000001 C11.943,16.5590000000002 12.58,17.076 13.343,17.076 C14.255,17.076 14.998,16.3389999999999 14.998,15.4349999999999 C14.998,15.1030000000001 14.896,14.7959999999998 14.725,14.538 C14.64,14.4079999999999 14.532,14.2959999999998 14.414,14.1950000000002 C14.285,14.0839999999998 14.142,13.9879999999998 13.982,13.922 C13.785,13.8400000000001 13.57,13.7939999999999 13.343,13.7939999999999 C12.621,13.7939999999999 12.012,14.2570000000001 11.787,14.8980000000001 C11.731,15.0569999999998 11.695,15.2249999999999 11.692,15.402 C11.691,15.4140000000002 11.688,15.424 11.688,15.4349999999999 C11.688,15.5839999999998 11.714,15.7249999999999 11.752,15.8620000000001 ZM6.79399999999998,17.076 C7.55700000000002,17.076 8.19400000000002,16.5590000000002 8.38499999999999,15.8620000000001 C8.423,15.7249999999999 8.44900000000001,15.5839999999998 8.44900000000001,15.4349999999999 C8.44900000000001,15.424 8.44600000000003,15.4140000000002 8.44600000000003,15.402 C8.44299999999998,15.2260000000001 8.40699999999998,15.0569999999998 8.351,14.8980000000001 C8.125,14.2570000000001 7.51600000000002,13.7939999999999 6.79399999999998,13.7939999999999 C6.56799999999998,13.7939999999999 6.35199999999998,13.8400000000001 6.15499999999997,13.922 C5.995,13.989 5.85300000000001,14.0839999999998 5.72300000000001,14.1950000000002 C5.60399999999999,14.2959999999998 5.49799999999999,14.4079999999999 5.41199999999998,14.538 C5.24099999999999,14.7959999999998 5.13900000000001,15.1030000000001 5.13900000000001,15.4349999999999 C5.13900000000001,16.3389999999999 5.88200000000001,17.076 6.79399999999998,17.076 ZM3,9 C3.12299999999999,10.8429999999998 4.06299999999999,12.1289999999999 5.35899999999998,13.3020000000001 C5.76999999999998,13.029 6.26400000000001,12.8699999999999 6.79399999999998,12.8699999999999 C8.10000000000002,12.8699999999999 9.17899999999997,13.8330000000001 9.35399999999999,15.0799999999999 C9.589,15.1039999999998 9.827,15.1179999999999 10.069,15.1179999999999 C10.31,15.1179999999999 10.549,15.1039999999998 10.784,15.0799999999999 C10.959,13.8330000000001 12.038,12.8699999999999 13.343,12.8699999999999 C13.873,12.8699999999999 14.367,13.029 14.778,13.3020000000001 C16.075,12.1289999999999 16.877,10.8429999999998 17,9 C17,9 3,9 3,9 ZM11.149,0 C11.149,0 11.615,0 11.615,0 C15.135,0 17.999,2.84000000000015 17.999,6.32999999999993 C17.999,6.32999999999993 17.999,6.79199999999992 17.999,6.79199999999992 C17.999,6.79199999999992 11.149,6.79199999999992 11.149,6.79199999999992 C11.149,6.79199999999992 11.149,0 11.149,0 ZM12.081,5.86799999999994 C12.081,5.86799999999994 17.048,5.86799999999994 17.048,5.86799999999994 C16.824,3.25500000000011 14.716,1.16600000000017 12.081,0.94399999999996 C12.081,0.94399999999996 12.081,5.86799999999994 12.081,5.86799999999994 Z "/>
</svg>
