<?xml version="1.0" encoding="UTF-8" standalone="no"?>
<svg width="111px" height="26px" viewBox="0 0 111 26" version="1.1" xmlns="http://www.w3.org/2000/svg" xmlns:xlink="http://www.w3.org/1999/xlink" xmlns:sketch="http://www.bohemiancoding.com/sketch/ns">
    <!-- Generator: Sketch 3.2.2 (9983) - http://www.bohemiancoding.com/sketch -->
    <title>Slice 1</title>
    <desc>Created with Sketch.</desc>
    <defs>
        <linearGradient x1="49.979774%" y1="0.0211382114%" x2="49.979774%" y2="99.9101626%" id="linearGradient-1">
            <stop stop-color="#1781C5" offset="0%"></stop>
            <stop stop-color="#156FB2" offset="36.63%"></stop>
            <stop stop-color="#104D95" offset="100%"></stop>
        </linearGradient>
        <linearGradient x1="50.0668675%" y1="-0.271957672%" x2="50.0668675%" y2="100.034921%" id="linearGradient-2">
            <stop stop-color="#FDB913" offset="0%"></stop>
            <stop stop-color="#F9A11B" offset="43.89%"></stop>
            <stop stop-color="#F57F20" offset="100%"></stop>
        </linearGradient>
    </defs>
    <g id="Page-1" stroke="none" stroke-width="1" fill="none" fill-rule="evenodd" sketch:type="MSPage">
        <g id="logo" sketch:type="MSLayerGroup">
            <g id="Gradient_x5F_variant" sketch:type="MSShapeGroup">
                <path d="M34.2,1.8 C32.6,0.9 30.4,0.8 28.8,0.8 L23.1,0.8 C22.8,0.8 22.4,0.9 22.4,1.5 L22.4,24.1 C22.4,24.4 22.5,24.8 23.1,24.8 L26.5,24.8 C27.1,24.8 27.2,24.4 27.2,24.1 L27.2,15.2 L29.1,15.2 C34.1,15.2 37.1,12.1 37.1,7.5 C37,4.1 35.5,2.5 34.2,1.8 L34.2,1.8 Z M28.2,11.4 L27.1,11.4 L27.1,4.5 L28.6,4.5 C29.9,4.5 32.2,4.5 32.2,7.8 C32.3,11.1 30.3,11.4 28.2,11.4 L28.2,11.4 Z M48.3,6.9 C46.5,6.9 45.2,7.8 43.9,9.7 C43.8,8.9 43.5,8.2 43.1,7.4 C43,7.2 42.9,6.9 42.6,6.9 C42.5,6.9 42.4,7 42.1,7 L39.4,8.1 C39.2,8.2 39.1,8.3 39.1,8.4 C39.1,8.5 39.1,8.7 39.3,9.1 C39.8,10.4 40,11.7 40,13.7 L40,24.3 C40,24.8 40.1,24.8 40.5,24.8 L44,24.8 C44.5,24.8 44.5,24.7 44.5,24.3 L44.5,12.6 C45.3,11.5 46.4,10.9 47.4,10.9 C47.8,10.9 47.9,11 48.2,11.1 C48.6,11.2 48.7,11.3 48.8,11.3 C49,11.3 49.1,11.1 49.1,11 L50.2,8.1 C50.5,7.2 49.4,6.9 48.3,6.9 L48.3,6.9 Z M57.6,6.9 C53.7,6.9 50,9.6 50,16.1 C50,22.7 53.7,25.3 57.6,25.3 C61.5,25.3 65.2,22.6 65.2,16.1 C65.2,9.6 61.5,6.9 57.6,6.9 L57.6,6.9 Z M57.6,21.9 C54.9,21.9 54.7,18.8 54.7,16.2 C54.7,13.5 54.8,10.5 57.6,10.5 C60.3,10.5 60.5,13.6 60.5,16.2 C60.5,18.8 60.3,21.9 57.6,21.9 L57.6,21.9 Z M77.2,6.9 C75.6,6.9 73.7,7.4 71.8,9.3 C71.7,8.6 71.5,8 71.3,7.6 C70.9,6.8 70.8,6.7 70.1,7 L67.4,7.9 C67,8 67,8.2 67,8.4 C67,8.7 67.1,8.9 67.3,9.6 C67.5,10.5 67.6,11.6 67.6,13.8 L67.6,24.4 C67.6,24.9 67.7,24.9 68.1,24.9 L71.6,24.9 C72.1,24.9 72.1,24.8 72.1,24.4 L72.1,12 C73.4,10.8 74.4,10.6 75.1,10.6 C77.1,10.6 77.2,12.2 77.2,13.5 L77.2,24.3 C77.2,24.8 77.3,24.8 77.7,24.8 L81.2,24.8 C81.7,24.8 81.7,24.7 81.7,24.3 L81.7,12 C81.8,9.3 80.4,6.9 77.2,6.9 L77.2,6.9 Z M94.8,20.9 C94.8,20.8 94.6,20.7 94.5,20.7 C94.4,20.7 94.2,20.8 93.8,20.9 C92.9,21.3 92.4,21.4 91.9,21.4 C90.4,21.4 90.5,20.4 90.5,19.3 L90.5,10.8 L94.1,10.8 C94.3,10.8 94.6,10.7 94.6,10.3 L95,8.2 C95.1,7.8 95.2,7.5 94.5,7.5 L90.5,7.5 L90.5,2.6 C90.5,2.2 90.6,1.9 89.7,2 L86.6,2.4 C86.3,2.4 86,2.5 86,3 L86,7.4 L83.5,7.4 C83.1,7.4 83,7.6 83,7.9 L83,10.2 C83,10.6 83.1,10.7 83.5,10.7 L86,10.7 L86,18.6 C86,22.1 86.1,25.4 90.7,25.4 C91.9,25.4 93.4,25.2 94.5,24.8 C95.3,24.5 95.5,24.3 95.4,23.8 L94.8,20.9 L94.8,20.9 Z M103.3,6.9 C99.4,6.9 95.7,9.6 95.7,16.1 C95.7,22.7 99.4,25.3 103.3,25.3 C107.1,25.3 110.9,22.6 110.9,16.1 C110.9,9.6 107.1,6.9 103.3,6.9 L103.3,6.9 Z M103.3,21.9 C100.6,21.9 100.4,18.8 100.4,16.2 C100.4,13.5 100.5,10.5 103.3,10.5 C106,10.5 106.2,13.6 106.2,16.2 C106.1,18.8 106,21.9 103.3,21.9 L103.3,21.9 Z" id="Pronto_1_" fill="url(#linearGradient-1)"></path>
                <path d="M14.1,20 C12.8,21.3 11.7,22.2 10.8,22.6 C10,23 9.1,23.2 8.3,23.2 C7.2,23.2 6.4,22.9 5.8,22.3 C5.2,21.7 4.9,20.8 4.9,19.6 C4.9,19.3 4.9,19 5,18.6 C8.5,17.9 11,17.1 12.4,16.5 C14,15.8 15.1,14.9 15.8,14 C16.5,13 16.9,12.1 16.9,11.1 C16.9,9.9 16.4,8.9 15.4,8.1 C14.5,7.3 13.2,6.9 11.8,6.9 C10.2,6.9 8.4,7.5 6.5,8.6 C4.6,9.7 3.1,11.2 2,12.9 C0.9,14.7 0.3,16.5 0.3,18.4 C0.3,20.6 1,22.3 2.4,23.7 C3.8,25.1 5.5,25.8 7.5,25.8 C10.4,25.8 13.1,24.3 15.7,21.4 L16,21 L14.4,19.6 L14.1,20 L14.1,20 Z M11,9.1 C11.6,9.1 12,9.2 12.3,9.6 C12.6,9.9 12.7,10.3 12.7,10.9 C12.7,11.7 12.5,12.5 12,13.2 C11.5,13.9 10.8,14.6 9.8,15.1 C8.9,15.6 7.4,16 5.4,16.5 C6,14 6.8,12.2 7.8,11 C8.8,9.7 9.9,9.1 11,9.1 L11,9.1 Z" id="Shape" fill="url(#linearGradient-2)"></path>
            </g>
        </g>
    </g>
</svg>