<?xml version="1.0" encoding="utf-8"?>
<!-- Generator: Adobe Illustrator 18.0.0, SVG Export Plug-In . SVG Version: 6.00 Build 0)  -->
<!DOCTYPE svg PUBLIC "-//W3C//DTD SVG 1.1//EN" "http://www.w3.org/Graphics/SVG/1.1/DTD/svg11.dtd">
<svg version="1.1" id="Слой_1" xmlns="http://www.w3.org/2000/svg" xmlns:xlink="http://www.w3.org/1999/xlink" x="0px" y="0px"
	 viewBox="0 0 1345 347" enable-background="new 0 0 1345 347" xml:space="preserve">
<g id="g6">
	<path id="path8" fill="#034954" d="M431.7,55.1v-6.1c0.3-9.5,2.9-17,7.8-22.3c4.9-5.3,11.5-8,19.6-8c7.9,0,14.4,2.8,19.4,8.4
		c5,5.6,7.6,12.9,7.6,21.9v6.1v29.1h6.1h5.7c8.2,0.3,14.7,2.6,19.6,7c4.9,4.4,7.4,10.2,7.4,17.6c0,7.1-2.5,13-7.6,17.6
		c-5,4.6-11.5,7-19.4,7h-5.7h-6.1v110.9v6.1c-0.3,9.3-2.9,16.7-7.8,22.1c-4.9,5.5-11.5,8.2-19.6,8.2c-7.9,0-14.4-2.8-19.4-8.4
		c-5-5.6-7.6-12.9-7.6-21.9v-6.1V133.2h-2.9c-8.7,0-15.6-2.2-20.7-6.5c-5.1-4.4-7.6-10.4-7.6-18c0-16.9,10.4-25.1,31.1-24.6
		C431.7,84.1,431.7,55.1,431.7,55.1z"/>
	<path id="path10" fill="#034954" d="M610,80c13.9,0,27,2.7,39.3,8c12.3,5.3,23,12.6,32.1,21.7c9.1,9.2,16.4,19.9,21.7,32.1
		c5.3,12.3,8,25.5,8,39.7c0,13.6-2.7,26.5-8,38.7c-5.3,12.2-12.6,22.8-21.9,31.9c-9.3,9.1-20.1,16.4-32.3,21.7
		c-12.3,5.3-25.4,8-39.3,8c-13.9,0-27.1-2.6-39.5-7.8c-12.4-5.2-23.2-12.3-32.3-21.3c-9.1-9-16.4-19.5-21.9-31.5
		c-5.5-12-8.2-24.8-8.2-38.5c0-14.5,2.7-28,8-40.5c5.3-12.5,12.6-23.4,21.7-32.5c9.1-9.1,19.9-16.4,32.3-21.7
		C582.1,82.7,595.5,80,610,80z M610,134.5L610,134.5c-6.6,0-12.7,1.2-18.4,3.7c-5.7,2.4-10.7,5.8-14.9,10c-4.2,4.2-7.5,9.2-9.8,14.9
		c-2.3,5.7-3.5,12-3.5,18.8c0,6,1.2,11.7,3.7,17.2c2.5,5.5,5.8,10.2,10,14.3c4.2,4.1,9.1,7.3,14.7,9.6c5.6,2.3,11.5,3.5,17.8,3.5
		c6.3,0,12.2-1.2,17.8-3.7c5.6-2.5,10.5-5.7,14.7-9.8c4.2-4.1,7.6-8.9,10-14.5c2.5-5.6,3.7-11.5,3.7-17.8c0-6.5-1.2-12.6-3.7-18.2
		c-2.5-5.6-5.7-10.4-9.8-14.5c-4.1-4.1-8.9-7.4-14.5-9.8C622.2,135.7,616.3,134.5,610,134.5z"/>
	<path id="path12" fill="#088CA1" d="M864.6,98.4c2.2-5.5,5.4-9.7,9.6-12.7c4.2-3,9.1-4.5,14.5-4.5c4.1,0,8,1,11.9,2.9
		c3.8,1.9,7,4.6,9.4,8.2c2.2,3,3.6,6,4.3,9c0.7,3,1,7.4,1,13.1v133.9c0,15-1.3,27.6-3.9,37.9c-2.6,10.2-6.8,18.9-12.5,26
		c-9,11.2-20.3,19.8-34,25.8c-13.7,6-28.7,9-45,9c-10.9,0-21.3-1.2-31.1-3.7c-9.8-2.5-18.5-5.9-26-10.2c-7.5-4.4-13.4-9.4-17.8-15.1
		c-4.4-5.7-6.5-11.7-6.5-18c0-7.4,2.5-13.6,7.6-18.8c5-5.2,11.3-7.8,18.6-7.8c4.1,0,7.8,0.7,11,2c3.3,1.4,7.9,4.2,13.9,8.6
		c6.3,4.4,11.7,7.4,16.4,9.2c4.6,1.8,10.1,2.7,16.4,2.7c12.3,0,21.8-3.8,28.4-11.5c6.7-7.6,10-18.6,10-32.7v-3.3
		c-7.9,5.7-15.7,9.9-23.3,12.5c-7.7,2.6-16.2,3.9-25.8,3.9c-12.3,0-23.6-2.3-34-7c-10.4-4.6-19.4-11-27-19.2
		c-7.6-8.2-13.6-17.8-18-28.9c-4.4-11-6.5-23-6.5-35.8c0-13.1,2.2-25.4,6.5-36.8c4.4-11.5,10.3-21.4,17.8-29.9
		c7.5-8.4,16.4-15.1,26.8-19.8c10.4-4.8,21.5-7.2,33.6-7.2c10.4,0,19.6,1.4,27.6,4.1C846.6,86.8,855.3,91.6,864.6,98.4z M823,132.4
		L823,132.4c-5.5,0-10.6,1-15.4,3.1c-4.8,2-9,4.9-12.8,8.4c-3.7,3.5-6.6,7.8-8.6,12.7c-2.1,4.9-3.1,10.1-3.1,15.5
		c0,11.5,3.8,21,11.5,28.7c7.7,7.6,17.1,11.5,28.4,11.5c11.3,0,20.7-3.8,28.4-11.5c7.7-7.6,11.5-17,11.5-28.2
		c0-11.2-3.8-20.7-11.5-28.4C843.7,136.3,834.3,132.4,823,132.4z"/>
	<path id="path14" fill="#088CA1" d="M1024.8,80c13.9,0,27,2.7,39.3,8c12.3,5.3,23,12.6,32.1,21.7c9.1,9.2,16.4,19.9,21.7,32.1
		c5.3,12.3,8,25.5,8,39.7c0,13.6-2.7,26.5-8,38.7c-5.3,12.2-12.6,22.8-21.9,31.9c-9.3,9.1-20.1,16.4-32.3,21.7
		c-12.3,5.3-25.4,8-39.3,8c-13.9,0-27.1-2.6-39.5-7.8c-12.4-5.2-23.2-12.3-32.3-21.3c-9.2-9-16.4-19.5-21.9-31.5
		c-5.5-12-8.2-24.8-8.2-38.5c0-14.5,2.7-28,8-40.5c5.3-12.5,12.5-23.4,21.7-32.5c9.1-9.1,19.9-16.4,32.3-21.7
		C996.9,82.7,1010.4,80,1024.8,80z M1024.8,134.5L1024.8,134.5c-6.6,0-12.7,1.2-18.4,3.7c-5.7,2.4-10.7,5.8-14.9,10
		c-4.2,4.2-7.5,9.2-9.8,14.9c-2.3,5.7-3.5,12-3.5,18.8c0,6,1.2,11.7,3.7,17.2c2.5,5.5,5.8,10.2,10,14.3c4.2,4.1,9.1,7.3,14.7,9.6
		c5.6,2.3,11.5,3.5,17.8,3.5s12.2-1.2,17.8-3.7c5.6-2.5,10.5-5.7,14.7-9.8c4.2-4.1,7.6-8.9,10-14.5c2.4-5.6,3.7-11.5,3.7-17.8
		c0-6.5-1.2-12.6-3.7-18.2c-2.5-5.6-5.7-10.4-9.8-14.5c-4.1-4.1-8.9-7.4-14.5-9.8C1037,135.7,1031.1,134.5,1024.8,134.5z"/>
	<path id="path16" fill="#034954" d="M1243.4,80c13.9,0,27,2.7,39.3,8c12.3,5.3,23,12.6,32.1,21.7c9.1,9.2,16.4,19.9,21.7,32.1
		c5.3,12.3,8,25.5,8,39.7c0,13.6-2.7,26.5-8,38.7c-5.3,12.2-12.6,22.8-21.9,31.9c-9.3,9.1-20,16.4-32.3,21.7
		c-12.3,5.3-25.4,8-39.3,8c-13.9,0-27.1-2.6-39.5-7.8c-12.4-5.2-23.2-12.3-32.3-21.3c-9.2-9-16.4-19.5-21.9-31.5
		c-5.5-12-8.2-24.8-8.2-38.5c0-14.5,2.7-28,8-40.5c5.3-12.5,12.5-23.4,21.7-32.5c9.1-9.1,19.9-16.4,32.3-21.7
		C1215.5,82.7,1228.9,80,1243.4,80z"/>
	<g id="g18">
		<path id="path20" fill="#FFFFFF" d="M1200.3,196.4v16.8c0,4.1-1,7.1-2.9,9.2c-1.9,2-4.3,3.1-7.3,3.1c-2.9,0-5.3-1-7.1-3.1
			c-1.9-2.1-2.8-5.1-2.8-9.1v-56c0-9,3.3-13.5,9.8-13.5c3.3,0,5.7,1.1,7.2,3.2c1.5,2.1,2.3,5.2,2.4,9.4c2.4-4.1,4.9-7.2,7.4-9.4
			c2.5-2.1,5.9-3.2,10.1-3.2c4.2,0,8.3,1.1,12.3,3.2c4,2.1,6,4.9,6,8.4c0,2.5-0.8,4.5-2.5,6.1c-1.7,1.6-3.5,2.4-5.5,2.4
			c-0.7,0-2.5-0.5-5.3-1.4c-2.8-0.9-5.3-1.4-7.5-1.4c-2.9,0-5.3,0.8-7.2,2.3c-1.9,1.5-3.3,3.8-4.3,6.9c-1,3.1-1.7,6.7-2.1,10.9
			C1200.5,185.3,1200.3,190.4,1200.3,196.4z"/>
		<path id="path22" fill="#FFFFFF" d="M1294.9,214.1v-2.6c-2.4,3-4.9,5.6-7.6,7.7c-2.7,2.1-5.6,3.6-8.7,4.6c-3.1,1-6.7,1.5-10.8,1.5
			c-4.9,0-9.2-1-13.1-3c-3.9-2-6.8-4.8-8.9-8.3c-2.5-4.3-3.8-10.4-3.8-18.4v-39.8c0-4,0.9-7,2.7-9c1.8-2,4.2-3,7.2-3
			c3,0,5.5,1,7.4,3c1.9,2,2.8,5,2.8,9v32.2c0,4.7,0.4,8.6,1.2,11.7c0.8,3.2,2.2,5.6,4.2,7.4c2,1.8,4.8,2.7,8.3,2.7
			c3.4,0,6.6-1,9.6-3c3-2,5.2-4.6,6.6-7.9c1.1-2.8,1.7-9.1,1.7-18.7v-24.4c0-4,0.9-7,2.8-9c1.9-2,4.3-3,7.3-3c3,0,5.4,1,7.2,3
			c1.8,2,2.7,5,2.7,9V214c0,3.8-0.9,6.7-2.6,8.6c-1.7,1.9-4,2.9-6.7,2.9s-5-1-6.8-3C1295.7,220.5,1294.9,217.7,1294.9,214.1z"/>
	</g>
	<g id="g24">
		<g id="g26">
			<path id="path28" fill="#088CA1" d="M102.8,78.8c13.9,0,27,2.7,39.3,8c12.3,5.3,23,12.6,32.1,21.7c9.1,9.2,16.4,19.9,21.7,32.1
				c5.3,12.3,8,25.5,8,39.7c0,13.6-2.7,26.5-8,38.7c-5.3,12.1-12.6,22.8-21.9,31.9c-9.3,9.1-20.1,16.4-32.3,21.7
				c-12.3,5.3-25.4,8-39.3,8c-13.9,0-27.1-2.6-39.5-7.8c-12.4-5.2-23.2-12.3-32.3-21.3c-9.1-9-16.4-19.5-21.9-31.5
				c-5.5-12-8.2-24.8-8.2-38.5c0-14.5,2.7-28,8-40.5c5.3-12.5,12.6-23.4,21.7-32.5c9.1-9.1,19.9-16.4,32.3-21.7
				C74.9,81.5,88.4,78.8,102.8,78.8z M102.8,133.2L102.8,133.2c-6.6,0-12.7,1.2-18.4,3.7c-5.7,2.4-10.7,5.8-14.9,10
				c-4.2,4.2-7.5,9.2-9.8,14.9c-2.3,5.7-3.5,12-3.5,18.8c0,6,1.2,11.7,3.7,17.2c2.5,5.5,5.8,10.2,10,14.3c4.2,4.1,9.1,7.3,14.7,9.6
				c5.6,2.3,11.5,3.5,17.8,3.5s12.2-1.2,17.8-3.7c5.6-2.5,10.5-5.7,14.7-9.8c4.2-4.1,7.6-8.9,10-14.5c2.5-5.6,3.7-11.5,3.7-17.8
				c0-6.5-1.2-12.6-3.7-18.2c-2.5-5.6-5.7-10.4-9.8-14.5c-4.1-4.1-8.9-7.4-14.5-9.8C115,134.5,109.1,133.2,102.8,133.2z"/>
		</g>
		<g id="g30">
			<path id="path32" fill="#088CA1" d="M333.9,90.3l4.5-4.1c7.4-5.2,14.3-7.8,20.9-7.8c7.1,0,13.3,2.8,18.6,8.4
				c5.3,5.6,8,12.1,8,19.4c0,9.6-4.6,17.6-13.9,24.1l-4.9,3.7l-52,37.7l55.7,53.6c6,5.7,10,10.4,12.1,13.9c2,3.5,3.1,7.6,3.1,12.3
				c0,7.9-2.8,14.6-8.4,20.1c-5.6,5.5-12.4,8.2-20.3,8.2c-7.1,0-14.3-3.7-21.7-11.1l-4.1-4.5l-64.7-68.4v47.1v6.1
				c-0.3,9.3-2.8,16.7-7.6,22.1c-4.8,5.5-11.3,8.2-19.4,8.2c-8.2,0-14.8-2.8-19.8-8.4c-5.1-5.6-7.6-12.9-7.6-21.9v-6.1v-203v-6.2
				c0.3-9.3,2.9-16.6,7.8-22.1c4.9-5.5,11.5-8.2,19.6-8.2c8.2,0,14.7,2.8,19.7,8.4c4.9,5.6,7.4,12.9,7.4,21.9v6.2v103.2
				C266.8,143.1,333.9,90.3,333.9,90.3z"/>
		</g>
		
			<linearGradient id="path41_1_" gradientUnits="userSpaceOnUse" x1="485.676" y1="213.4621" x2="535.676" y2="213.4621" gradientTransform="matrix(3.4712 0 0 -4.026 -1473.5411 960.1462)">
			<stop  offset="0" style="stop-color:#FFFFFF"/>
			<stop  offset="1" style="stop-color:#FFFFFF"/>
		</linearGradient>
		<path id="path41" fill="url(#path41_1_)" fill-opacity="0" d="M315.1,168.3l52-37.7l4.9-3.7c9.3-6.6,13.9-14.6,13.9-24.1
			c0-7.4-2.7-13.8-8-19.4c-5.3-5.6-11.5-8.4-18.6-8.4c-6.6,0-13.5,2.6-20.9,7.8l-4.5,4.1l-67.1,52.8V36.5v-6.2
			c0-9-2.5-16.3-7.4-21.9c-4.9-5.6-11.5-8.4-19.7-8.4c-8.2,0-14.7,2.7-19.6,8.2c-4.9,5.5-7.5,12.8-7.8,22.1v6.2v164.9
			c19.1-1.7,37.3-4.6,54.4-8.4v-0.5l0.4,0.4c20.2-4.5,38.8-10.4,55.3-17.4L315.1,168.3z"/>
		
			<linearGradient id="path50_1_" gradientUnits="userSpaceOnUse" x1="450.9502" y1="207.225" x2="500.9502" y2="207.225" gradientTransform="matrix(4.0605 0 0 -2.56 -1830.1708 669.9186)">
			<stop  offset="0" style="stop-color:#FFFFFF"/>
			<stop  offset="1" style="stop-color:#FFFFFF"/>
		</linearGradient>
		<path id="path50" fill="url(#path50_1_)" fill-opacity="0" d="M174.3,105.1c-9.1-9.1-19.8-16.4-32.1-21.7c-12.3-5.3-25.4-8-39.3-8
			c-14.5,0-27.9,2.7-40.3,8C50.1,88.7,39.3,96,30.2,105.1c-9.1,9.2-16.4,20-21.7,32.5c-4.2,10-6.7,20.5-7.6,31.7
			c16.7,8.3,36,15.3,57.3,20.8c-1.3-4.1-2-8.4-2-12.8c0-6.8,1.2-13.1,3.5-18.8c2.3-5.7,5.6-10.7,9.8-14.9c4.2-4.2,9.2-7.6,14.9-10
			c5.7-2.5,11.9-3.7,18.4-3.7c6.3,0,12.2,1.2,17.8,3.7c5.6,2.4,10.4,5.7,14.5,9.8c4.1,4.1,7.4,8.9,9.8,14.5
			c2.5,5.6,3.7,11.7,3.7,18.2c0,6.3-1.2,12.2-3.7,17.8c-1.4,3.1-3.1,6-5,8.6c9.3,0.5,18.8,0.9,28.4,0.9c10.9,0,21.7-0.4,32.2-1.1
			c2.2-8.2,3.4-16.6,3.4-25.4c0-14.2-2.7-27.4-8-39.7C190.6,124.9,183.4,114.3,174.3,105.1z"/>
	</g>
</g>
</svg>
