<?xml version="1.0" encoding="utf-8"?>
<!-- Generator: Adobe Illustrator 18.0.0, SVG Export Plug-In . SVG Version: 6.00 Build 0)  -->
<!DOCTYPE svg PUBLIC "-//W3C//DTD SVG 1.1//EN" "http://www.w3.org/Graphics/SVG/1.1/DTD/svg11.dtd">
<svg version="1.1" xmlns="http://www.w3.org/2000/svg" xmlns:xlink="http://www.w3.org/1999/xlink" x="0px" y="0px"
	 viewBox="0 0 116.5 38.6" enable-background="new 0 0 116.5 38.6" xml:space="preserve">
<g id="bg">
</g>
<g id="Layer_1">
	<g>
		<path fill-rule="evenodd" clip-rule="evenodd" fill="#4988C8" d="M67.7,0h10.2c2.8,0,7.7,1,7.7,5.3v8.6c0,4.3-4.9,5.3-7.7,5.3
			H67.7c-2.8,0-7.7-1-7.7-5.3V5.3C60,1,64.9,0,67.7,0 M81.6,5.7c0-1.7-1.3-2.3-3.8-2.3H67.7C65.2,3.4,64,4,64,5.7v7.8
			c0,1.7,1.3,2.3,3.8,2.3h10.1c2.5,0,3.8-0.5,3.8-2.3V5.7z"/>
		<path fill-rule="evenodd" clip-rule="evenodd" fill="#4988C8" d="M7.7,0h10.2c2.8,0,7.7,1,7.7,5.3v8.6c0,4.3-4.9,5.3-7.7,5.3H7.7
			c-2.8,0-7.7-1-7.7-5.3V5.3C0,1,5,0,7.7,0 M21.6,5.7c0-1.7-1.3-2.3-3.8-2.3H7.8C5.3,3.4,4,4,4,5.7v7.8c0,1.7,1.3,2.3,3.8,2.3h10.1
			c2.5,0,3.8-0.5,3.8-2.3V5.7z"/>
		<path fill-rule="evenodd" clip-rule="evenodd" fill="#6DC1F4" d="M55.3,0.8c-0.2-0.3-0.5-0.5-0.9-0.5H30.9c-0.6,0-1.1,0.5-1.1,1.1
			v1.3c0,0.6,0.5,1.1,1.1,1.1h18.5L30.9,14.5c-0.6,0.3-1.1,1.1-1.1,1.7v0.4v1.3V18c0,0.2,0.1,0.4,0.2,0.5c0.2,0.3,0.5,0.5,0.9,0.5
			h23.5c0.6,0,1.1-0.5,1.1-1.1v-1.3c0-0.6-0.5-1.1-1.1-1.1H35.9L54.4,4.8C55,4.4,55.5,3.6,55.5,3V2.7V1.3V1.2
			C55.5,1,55.4,0.9,55.3,0.8z"/>
		<path fill-rule="evenodd" clip-rule="evenodd" fill="#4988C8" d="M115.4,0.2h-1.8c-0.6,0-1.1,0.5-1.1,1.1v12.5L94.4,0.6
			c-0.2-0.2-0.5-0.3-0.8-0.3h-1.8c-0.6,0-1.1,0.5-1.1,1.1v16.6c0,0.6,0.5,1.1,1.1,1.1h1.8c0.6,0,1.1-0.5,1.1-1.1V5.4l18.1,13.3
			c0,0,0.1,0,0.1,0.1c0.2,0.2,0.4,0.2,0.7,0.2h1.8c0.6,0,1.1-0.5,1.1-1.1V1.3C116.5,0.7,116,0.2,115.4,0.2z"/>
	</g>
	<g>
		<linearGradient id="SVGID_1_" gradientUnits="userSpaceOnUse" x1="30.2695" y1="29.2955" x2="30.2695" y2="31.4585">
			<stop  offset="1.129900e-002" style="stop-color:#F3C767"/>
			<stop  offset="0.3843" style="stop-color:#ECB158"/>
			<stop  offset="0.7439" style="stop-color:#E8A350"/>
			<stop  offset="1" style="stop-color:#E69E4D"/>
		</linearGradient>
		<path fill="url(#SVGID_1_)" d="M33,29.4c-0.3-0.1-0.8-0.2-1.4-0.2h-4.5v2.2h4.8c0.4,0,0.8,0,1-0.1c0.2-0.1,0.4-0.2,0.5-0.3
			c0.1-0.1,0.1-0.1,0.1-0.2v-1c0-0.1,0-0.2-0.1-0.2C33.3,29.6,33.2,29.5,33,29.4z"/>
		<linearGradient id="SVGID_2_" gradientUnits="userSpaceOnUse" x1="50.0618" y1="29.6339" x2="50.0618" y2="32.357">
			<stop  offset="1.129900e-002" style="stop-color:#F3C767"/>
			<stop  offset="0.3843" style="stop-color:#ECB158"/>
			<stop  offset="0.7439" style="stop-color:#E8A350"/>
			<stop  offset="1" style="stop-color:#E69E4D"/>
		</linearGradient>
		<polygon fill="url(#SVGID_2_)" points="48.2,32.3 51.9,32.3 50.1,29.6 		"/>
		<linearGradient id="SVGID_3_" gradientUnits="userSpaceOnUse" x1="58.2632" y1="25.1757" x2="58.2632" y2="38.8427">
			<stop  offset="1.129900e-002" style="stop-color:#F3C767"/>
			<stop  offset="0.3843" style="stop-color:#ECB158"/>
			<stop  offset="0.7439" style="stop-color:#E8A350"/>
			<stop  offset="1" style="stop-color:#E69E4D"/>
		</linearGradient>
		<path fill="url(#SVGID_3_)" d="M116.5,26.7c0-0.9-0.7-1.6-1.6-1.6c0,0,0,0,0,0v0h-1.5h-2.7H5.9H3.2H1.7v0c0,0,0,0,0,0
			C0.7,25,0,25.8,0,26.7c0,0,0,0,0,0h0v1.5v2v3.3v2V37h0c0,0,0,0,0,0c0,0.9,0.7,1.6,1.6,1.6c0,0,0,0,0,0v0h1.5h2.7h104.7h2.7h1.5v0
			c0,0,0,0,0,0c0.9,0,1.6-0.7,1.6-1.6c0,0,0,0,0,0h0v-1.5v-2v-3.3v-2V26.7L116.5,26.7C116.5,26.7,116.5,26.7,116.5,26.7z M15.1,29.1
			c-0.1,0.1-0.3,0.2-0.5,0.2h-2.9v5.8c0,0.2,0,0.3-0.2,0.5c-0.1,0.1-0.3,0.2-0.5,0.2c-0.3,0-0.5,0-0.6,0c-0.1,0-0.2-0.1-0.3-0.2
			c-0.1-0.1-0.1-0.2-0.1-0.4v-5.8H7.2c-0.2,0-0.4,0-0.5-0.2c-0.1-0.1-0.2-0.3-0.2-0.5c0-0.2,0-0.4,0.1-0.5c0-0.1,0.1-0.2,0.2-0.2
			c0.1,0,0.2-0.1,0.3-0.1h7.5c0.2,0,0.4,0.1,0.5,0.2c0.1,0.1,0.1,0.3,0.1,0.6C15.3,28.8,15.2,29,15.1,29.1z M35.1,30.8
			c0,0.4-0.1,0.7-0.3,1c-0.2,0.3-0.5,0.5-0.9,0.7c-0.6,0.2-1.3,0.4-2,0.4h-1.6l4,1.7c0.1,0.1,0.2,0.1,0.3,0.2
			c0.1,0.1,0.1,0.2,0.1,0.4c0,0.2-0.1,0.4-0.3,0.5c-0.2,0.1-0.4,0.1-0.7,0.1c-0.2,0-0.4,0-0.6-0.1l-6.1-2.6v2c0,0.2,0,0.3-0.2,0.5
			c-0.1,0.1-0.3,0.2-0.5,0.2c-0.3,0-0.4,0-0.6,0l-0.1,0h0c0,0,0,0,0,0l0,0h0c-0.1,0-0.2-0.1-0.3-0.2c-0.1-0.1-0.1-0.2-0.1-0.4v-6.6
			c0-0.2,0-0.3,0.2-0.5c0.1-0.1,0.3-0.2,0.5-0.2h5.6c0.9,0,1.6,0.1,2.2,0.3c0.4,0.2,0.7,0.4,1,0.7c0.2,0.3,0.3,0.6,0.3,1V30.8z
			 M55.4,35.7c-0.2,0.2-0.4,0.2-0.6,0.2c-0.3,0-0.6-0.2-0.8-0.4l-1.2-1.7h-5.7L46,35.5c-0.1,0.2-0.3,0.4-0.5,0.4
			c-0.2,0-0.4-0.1-0.5-0.2c-0.2-0.1-0.3-0.3-0.3-0.5v0l0,0l0-0.1l4.4-6.7c0.2-0.3,0.6-0.5,1-0.5c0.2,0,0.3,0,0.5,0.1
			c0.1,0.1,0.2,0.1,0.3,0.3l0,0l0,0.1l4.6,6.6c0,0.1,0,0.1,0,0.3C55.7,35.3,55.6,35.5,55.4,35.7z M74,28.8l-4.5,6.4
			c-0.2,0.3-0.6,0.5-0.9,0.5c-0.4,0-0.7-0.2-0.9-0.5l-4.5-6.4c-0.1-0.2-0.2-0.3-0.2-0.5c0-0.2,0.1-0.3,0.2-0.4
			c0.1-0.1,0.3-0.1,0.6-0.1c0.4,0,0.6,0.1,0.8,0.3l4,5.7l4-5.7c0.2-0.2,0.4-0.3,0.8-0.3c0.2,0,0.4,0,0.6,0.1
			c0.2,0.1,0.2,0.3,0.2,0.4C74.1,28.5,74.1,28.7,74,28.8z M85.9,33.9c0.1,0.1,0.1,0.1,0.3,0.2c0.3,0.1,0.7,0.2,1.3,0.2h4.5
			c0.2,0,0.3,0,0.5,0.2c0.1,0.1,0.2,0.3,0.2,0.5c0,0.2,0,0.4-0.2,0.6c-0.1,0.1-0.3,0.2-0.5,0.2h-4.5c-0.7,0-1.4-0.1-2-0.4
			c-0.4-0.2-0.7-0.4-0.9-0.7c-0.2-0.3-0.3-0.6-0.3-1v-3.8c0-0.4,0.1-0.8,0.4-1.1c0.6-0.7,1.6-1,3-1h4.3c0.2,0,0.4,0.1,0.5,0.2
			c0.1,0.1,0.1,0.3,0.1,0.6c0,0.2,0,0.3-0.2,0.5c-0.1,0.1-0.3,0.2-0.5,0.2h-3.3l-0.1,0c-0.1,0-0.2,0-0.3,0H88c-0.6,0-1,0-1.4,0.1
			c-0.3,0.1-0.6,0.2-0.7,0.3c-0.1,0.1-0.1,0.2-0.1,0.3v1.2H92c0.2,0,0.4,0.1,0.5,0.2c0.1,0.1,0.2,0.3,0.2,0.5c0,0.2,0,0.4-0.2,0.5
			c-0.1,0.1-0.3,0.2-0.5,0.2h-6.1v1.1C85.8,33.8,85.9,33.8,85.9,33.9z M109.8,35.6c-0.1,0.1-0.3,0.2-0.5,0.2h-1.9
			c-1,0-1.8-0.1-2.4-0.3c-0.5-0.2-0.8-0.4-1.1-0.7c-0.2-0.3-0.4-0.7-0.4-1.2v-5.1c0-0.2,0-0.3,0.2-0.5c0.1-0.1,0.3-0.2,0.5-0.2
			c0.3,0,0.5,0,0.6,0c0.1,0,0.2,0.1,0.3,0.2c0.1,0.1,0.1,0.2,0.1,0.4v5.1c0,0.2,0.1,0.3,0.2,0.4c0.1,0.1,0.3,0.2,0.7,0.3
			c0.2,0,0.6,0.1,1.4,0.1h1.8c0.2,0,0.4,0.1,0.5,0.2c0.1,0.1,0.1,0.3,0.1,0.6C110,35.3,110,35.5,109.8,35.6z"/>
	</g>
</g>
</svg>
