<?xml version="1.0" encoding="utf-8"?>
<!DOCTYPE svg PUBLIC "-//W3C//DTD SVG 1.1//EN" "http://www.w3.org/Graphics/SVG/1.1/DTD/svg11.dtd">
<svg version="1.1" baseProfile="full"
 xmlns="http://www.w3.org/2000/svg"
 xmlns:xlink="http://www.w3.org/1999/xlink"
 xmlns:ev="http://www.w3.org/2001/xml-events" 
  height="20px" 
  width="18px" 
>
<path fill="rgb( 0, 92, 169 )"
 d="M14.709,5.25099999999998 C14.57,5.21800000000007 14.43,5.19599999999991 14.291,5.18100000000004 C15.396,4.35200000000009 16.168,3.27500000000009 15.356,2.22399999999993 C14.101,0.59899999999993 12.516,1.56500000000005 11.451,2.97399999999993 C11.436,2.48299999999995 11.264,2.02299999999991 10.836,1.65599999999995 C9.91300000000001,0.86699999999996 8.49400000000003,1.03099999999995 7.47500000000002,1.52800000000002 C6.70999999999998,1.90200000000004 6.08600000000001,2.6110000000001 6.06,3.49099999999999 C6.05399999999997,3.71000000000004 6.08600000000001,3.9190000000001 6.14600000000002,4.11899999999991 C4.74000000000001,3.22900000000004 3.00099999999998,2.86799999999994 2.56299999999999,4.65499999999997 C2.245,5.952 3.63600000000002,6.65699999999993 5.07900000000001,6.96900000000005 C4.79399999999998,7.01800000000003 4.51299999999998,7.08400000000006 4.24200000000002,7.17699999999991 C3.71800000000002,7.35599999999999 3.19099999999997,7.6389999999999 2.89400000000001,8.125 C2.649,8.52700000000004 2.65100000000001,9.01099999999997 2.86200000000002,9.42499999999995 C3.06099999999998,9.81500000000005 3.45600000000002,10.075 3.86000000000001,10.212 C4.55000000000001,10.4469999999999 5.26400000000001,10.2819999999999 5.875,9.92399999999998 C5.03199999999998,10.7280000000001 4.40300000000002,11.6800000000001 4.02300000000002,12.846 C4.01600000000002,12.8689999999999 4.00999999999999,12.893 4.00299999999999,12.9159999999999 C3.06799999999998,12.1659999999999 1.92399999999998,11.8109999999999 0.67000000000002,11.896 C0.54599999999999,11.904 0.44600000000003,11.9490000000001 0.37,12.0160000000001 C0.16199999999998,12.104 0,12.3119999999999 0.05599999999998,12.5930000000001 C0.435,14.4880000000001 1.82600000000002,15.46 3.63499999999999,15.2670000000001 C3.57600000000002,16.395 3.63200000000001,17.556 3.67000000000002,18.546 C3.69600000000003,19.1980000000001 4.71199999999999,19.201 4.68599999999998,18.546 C4.56599999999997,15.4639999999999 4.58300000000003,12.068 7.24799999999999,10.0809999999999 C7.38200000000001,10.239 7.53500000000003,10.3720000000001 7.69900000000001,10.4849999999999 C7.02199999999999,11.3820000000001 6.58999999999998,12.5640000000001 6.99799999999999,13.6610000000001 C7.15100000000001,14.0709999999999 7.41300000000001,14.4960000000001 7.82299999999998,14.692 C8.26400000000001,14.902 8.77300000000002,14.845 9.11200000000002,14.472 C9.411,14.143 9.53500000000003,13.71 9.59199999999998,13.2760000000001 C9.80099999999999,13.556 10.084,13.7860000000001 10.462,13.9390000000001 C11.385,14.3099999999999 12.518,13.808 13.015,12.9929999999999 C13.148,12.7760000000001 13.225,12.5440000000001 13.255,12.307 C14.143,12.838 15.081,12.9290000000001 15.722,11.942 C16.495,10.7529999999999 15.624,9.82199999999989 14.456,9.18599999999992 C14.87,9.20299999999997 15.295,9.14699999999993 15.732,8.98900000000003 C16.596,8.67599999999993 17.2,7.89100000000008 16.894,6.95900000000006 C16.588,6.03199999999993 15.607,5.46299999999997 14.709,5.25099999999998 ZM3.726,14.252 C2.46100000000001,14.481 1.58199999999999,13.9680000000001 1.17700000000002,12.8879999999999 C2.18000000000001,12.9290000000001 3.03500000000003,13.3099999999999 3.75299999999999,14.0350000000001 C3.74200000000002,14.107 3.73599999999999,14.1800000000001 3.726,14.252 ZM14.558,2.83799999999997 C15.303,3.80199999999991 12.195,5.30099999999993 11.35,5.58500000000004 C11.334,5.57099999999991 11.32,5.55400000000009 11.304,5.54099999999994 C11.598,4.36699999999996 13.319,1.23399999999992 14.558,2.83799999999997 ZM6.339,8.11500000000001 C6.31400000000002,8.15100000000007 6.28800000000001,8.1869999999999 6.262,8.22299999999996 C6.255,8.23199999999997 6.243,8.24700000000007 6.23200000000003,8.26299999999992 C5.81700000000001,8.78899999999999 5.255,9.27299999999991 4.548,9.27600000000007 C3.81400000000002,9.27999999999997 3.47000000000003,8.61400000000003 4.18700000000001,8.20100000000002 C4.75999999999999,7.87100000000009 5.59100000000001,7.90000000000009 6.233,7.87300000000005 C6.322,7.86899999999991 6.41000000000003,7.86999999999989 6.49900000000002,7.86799999999994 C6.44799999999998,7.952 6.39400000000001,8.03400000000011 6.339,8.11500000000001 ZM3.553,4.99600000000009 C3.43900000000002,4.64499999999998 3.887,4.41699999999992 4.15499999999997,4.40499999999997 C4.57100000000003,4.38599999999997 4.99799999999999,4.61599999999999 5.35000000000002,4.80799999999999 C5.92899999999997,5.125 6.56700000000001,5.59999999999991 6.935,6.18000000000006 C5.90100000000001,6.2170000000001 3.846,5.89899999999989 3.553,4.99600000000009 ZM7.54700000000003,4.52500000000009 C7.42000000000002,4.38300000000004 7.41399999999999,4.37699999999995 7.29199999999997,4.17900000000009 C6.29000000000002,2.55899999999997 9.61099999999999,1.17499999999995 10.359,2.69100000000003 C10.377,2.74199999999996 10.394,2.79299999999989 10.406,2.84500000000003 C10.414,2.87599999999998 10.418,2.8900000000001 10.421,2.89899999999989 C10.421,2.9079999999999 10.421,2.92499999999995 10.423,2.95900000000006 C10.428,3.02800000000002 10.427,3.09699999999998 10.425,3.16499999999996 C10.424,3.20100000000002 10.421,3.23700000000008 10.417,3.27399999999989 C10.416,3.2829999999999 10.416,3.28899999999999 10.416,3.29299999999989 C10.414,3.30199999999991 10.412,3.3130000000001 10.41,3.32999999999993 C10.376,3.5329999999999 10.315,3.73199999999997 10.245,3.92499999999995 C10.129,4.24499999999989 9.91000000000003,4.64200000000005 9.68000000000001,5.00800000000004 C9.27100000000002,5.02500000000009 8.85399999999999,5.13200000000006 8.46199999999999,5.32300000000009 C8.13200000000001,5.08899999999994 7.82799999999997,4.83899999999994 7.54700000000003,4.52500000000009 ZM8.59399999999999,13.123 C8.59300000000002,13.1289999999999 8.59199999999998,13.1369999999999 8.59100000000001,13.145 C8.58800000000002,13.1659999999999 8.58499999999998,13.1880000000001 8.58100000000002,13.2090000000001 C8.56999999999999,13.2750000000001 8.55599999999998,13.3399999999999 8.53899999999999,13.405 C8.52600000000001,13.4580000000001 8.50999999999999,13.5119999999999 8.49200000000002,13.5640000000001 C8.48700000000002,13.579 8.48099999999999,13.5940000000001 8.47500000000002,13.6099999999999 C8.45699999999999,13.6479999999999 8.43700000000001,13.6859999999999 8.41500000000002,13.722 C8.40899999999999,13.732 8.40199999999999,13.741 8.39600000000002,13.75 C8.38099999999997,13.768 8.36500000000001,13.7840000000001 8.34800000000001,13.8 C8.34699999999998,13.8009999999999 8.34699999999998,13.8009999999999 8.34699999999998,13.8009999999999 C8.346,13.8009999999999 8.34500000000003,13.8019999999999 8.34399999999999,13.8019999999999 C8.33999999999998,13.8030000000001 8.33600000000001,13.8050000000001 8.33199999999999,13.8050000000001 C8.31999999999999,13.8019999999999 8.30900000000003,13.799 8.29700000000003,13.7950000000001 C8.29300000000001,13.7929999999999 8.28899999999999,13.7909999999999 8.28500000000003,13.789 C8.26499999999999,13.778 8.24700000000001,13.7650000000001 8.22899999999999,13.752 C8.221,13.7449999999999 8.21300000000002,13.739 8.20600000000002,13.732 C8.178,13.7059999999999 8.15199999999999,13.6780000000001 8.12700000000001,13.6489999999999 C8.12400000000002,13.646 8.12099999999998,13.643 8.11900000000003,13.6400000000001 C8.06799999999998,13.566 8.02300000000002,13.4880000000001 7.98500000000001,13.4079999999999 C7.983,13.404 7.98200000000003,13.4000000000001 7.98000000000002,13.3969999999999 C7.97899999999999,13.395 7.97800000000001,13.393 7.97800000000001,13.3910000000001 C7.959,13.3420000000001 7.94299999999998,13.2919999999999 7.928,13.242 C7.91399999999999,13.193 7.90300000000002,13.144 7.892,13.095 C7.887,13.0709999999999 7.88200000000001,13.047 7.87799999999999,13.0229999999999 C7.858,12.8530000000001 7.858,12.681 7.87400000000002,12.511 C7.87400000000002,12.501 7.87599999999998,12.491 7.87700000000001,12.481 C7.88400000000001,12.433 7.89299999999997,12.385 7.90300000000002,12.338 C7.92599999999999,12.229 7.95600000000002,12.123 7.99099999999999,12.0170000000001 C8.00700000000001,11.9670000000001 8.02499999999998,11.9179999999999 8.04399999999998,11.8689999999999 C8.04599999999999,11.8630000000001 8.04899999999998,11.855 8.053,11.848 C8.05799999999999,11.8340000000001 8.065,11.8209999999999 8.07100000000003,11.807 C8.12099999999998,11.6969999999999 8.178,11.5889999999999 8.23899999999998,11.4849999999999 C8.30500000000001,11.3720000000001 8.37700000000001,11.2629999999999 8.45299999999997,11.1569999999999 C8.45699999999999,11.153 8.45999999999998,11.1479999999999 8.46300000000002,11.144 C8.48200000000003,11.2439999999999 8.50099999999998,11.3440000000001 8.517,11.4449999999999 C8.52699999999999,11.5039999999999 8.536,11.5630000000001 8.54399999999998,11.6220000000001 C8.54599999999999,11.636 8.548,11.6500000000001 8.55000000000001,11.664 C8.55099999999999,11.672 8.55200000000002,11.681 8.553,11.6869999999999 C8.56799999999998,11.8030000000001 8.57999999999998,11.9190000000001 8.58999999999998,12.0360000000001 C8.62200000000001,12.3969999999999 8.63099999999997,12.7619999999999 8.59399999999999,13.123 ZM9.20800000000003,9.88699999999994 C8.48200000000003,9.97399999999993 8.024,9.56500000000005 7.82400000000001,8.98700000000008 C7.76999999999998,8.83300000000008 7.73599999999999,8.66799999999989 7.71899999999999,8.49600000000009 C7.62799999999999,7.577 8.09899999999999,6.60500000000002 8.94200000000001,6.15499999999997 C9.98899999999998,5.596 11.087,6.45399999999995 11.184,7.49399999999991 C11.291,8.6400000000001 10.371,9.74800000000005 9.20800000000003,9.88699999999994 ZM12.259,12.154 C12.258,12.1569999999999 12.258,12.1569999999999 12.258,12.1600000000001 C12.257,12.1669999999999 12.255,12.173 12.253,12.1869999999999 C12.243,12.2329999999999 12.23,12.279 12.215,12.3240000000001 C12.21,12.3389999999999 12.205,12.355 12.199,12.3699999999999 C12.197,12.373 12.197,12.374 12.194,12.3779999999999 C12.174,12.4200000000001 12.15,12.461 12.126,12.501 C12.117,12.5170000000001 12.094,12.548 12.077,12.5719999999999 C12.022,12.6379999999999 11.962,12.7 11.897,12.7570000000001 C11.888,12.7650000000001 11.883,12.769 11.877,12.7750000000001 C11.874,12.777 11.872,12.778 11.868,12.7809999999999 C11.829,12.809 11.788,12.835 11.747,12.8599999999999 C11.705,12.885 11.663,12.9069999999999 11.62,12.9290000000001 C11.606,12.9349999999999 11.599,12.9390000000001 11.592,12.943 C11.584,12.9449999999999 11.577,12.9480000000001 11.564,12.953 C11.473,12.9870000000001 11.38,13.011 11.285,13.029 C11.278,13.0309999999999 11.276,13.0309999999999 11.27,13.0319999999999 C11.265,13.0329999999999 11.263,13.0329999999999 11.254,13.0340000000001 C11.199,13.039 11.143,13.04 11.087,13.039 C11.06,13.039 11.033,13.0350000000001 11.006,13.0329999999999 C10.977,13.029 10.935,13.0219999999999 10.915,13.018 C10.868,13.0070000000001 10.823,12.992 10.777,12.9770000000001 C10.775,12.9760000000001 10.772,12.9760000000001 10.77,12.9749999999999 C10.753,12.9670000000001 10.737,12.9590000000001 10.72,12.951 C10.684,12.932 10.648,12.9110000000001 10.614,12.8879999999999 C10.601,12.8810000000001 10.593,12.876 10.586,12.8710000000001 C10.521,12.818 10.462,12.758 10.407,12.694 C10.399,12.683 10.391,12.671 10.382,12.6600000000001 C10.354,12.6189999999999 10.329,12.576 10.305,12.5329999999999 C10.28,12.489 10.257,12.443 10.236,12.396 C10.235,12.396 10.235,12.396 10.235,12.395 C10.223,12.3630000000001 10.211,12.3309999999999 10.2,12.299 C10.161,12.183 10.132,12.0640000000001 10.109,11.944 C10.104,11.9179999999999 10.099,11.8920000000001 10.095,11.866 C10.093,11.855 10.092,11.8499999999999 10.091,11.8440000000001 C10.091,11.8420000000001 10.091,11.8420000000001 10.09,11.8389999999999 C10.08,11.752 10.074,11.665 10.069,11.578 C10.054,11.308 10.072,10.98 10.1,10.7249999999999 C10.266,10.662 10.429,10.586 10.585,10.49 C10.635,10.4590000000001 10.682,10.422 10.729,10.3889999999999 C10.868,10.463 11.006,10.54 11.14,10.623 C11.224,10.6759999999999 11.306,10.732 11.388,10.789 C11.418,10.8099999999999 11.448,10.8330000000001 11.478,10.855 C11.458,10.8409999999999 11.56,10.921 11.572,10.931 C11.695,11.0340000000001 11.81,11.1469999999999 11.916,11.2660000000001 C11.94,11.2919999999999 11.962,11.319 11.985,11.347 C11.987,11.3499999999999 11.989,11.3520000000001 11.992,11.357 C12.038,11.4190000000001 12.078,11.4839999999999 12.117,11.55 C12.138,11.586 12.155,11.625 12.174,11.663 C12.183,11.6880000000001 12.211,11.7560000000001 12.218,11.779 C12.234,11.8299999999999 12.246,11.8820000000001 12.256,11.934 C12.258,11.9580000000001 12.261,11.982 12.261,12.0060000000001 C12.264,12.0550000000001 12.262,12.105 12.259,12.154 ZM14.975,11.192 C14.632,12.777 12.148,9.98199999999997 11.831,9.2940000000001 C12.404,9.42599999999993 12.968,9.62200000000007 13.503,9.8599999999999 C13.943,10.0550000000001 15.113,10.5550000000001 14.975,11.192 ZM15.203,8.096 C14.081,8.44299999999998 13.036,7.78899999999999 12.161,7.13400000000001 C12.143,7.01600000000008 12.117,6.89799999999991 12.083,6.78199999999993 C13.238,6.03899999999999 15.126,5.80799999999999 15.895,7.18900000000008 C16.175,7.69299999999998 15.6,7.97399999999993 15.203,8.096 Z "/>
</svg>
