<?xml version="1.0" encoding="utf-8"?>
<!DOCTYPE svg PUBLIC "-//W3C//DTD SVG 1.1//EN" "http://www.w3.org/Graphics/SVG/1.1/DTD/svg11.dtd">
<svg version="1.1" baseProfile="full"
 xmlns="http://www.w3.org/2000/svg"
 xmlns:xlink="http://www.w3.org/1999/xlink"
 xmlns:ev="http://www.w3.org/2001/xml-events" 
  height="16px" 
  width="16px" 
>
<path fill="rgb( 0, 92, 169 )"
 d="M15.361,11.107 C14.518,13.075 13.0839999999999,14.5150000000001 11.101,15.3610000000001 C10.11,15.7840000000001 9.072,16 7.98699999999997,16 C6.90200000000004,16 5.87199999999996,15.7860000000001 4.88099999999997,15.3610000000001 C2.91499999999996,14.5170000000001 1.47500000000002,13.078 0.63,11.107 C0.20600000000002,10.1199999999999 0,9.077 0,7.99099999999999 C0,6.90599999999995 0.20600000000002,5.87100000000009 0.63,4.88400000000001 C1.47500000000002,2.91300000000001 2.91499999999996,1.48299999999995 4.88099999999997,0.6389999999999 C5.87199999999996,0.21399999999994 6.90200000000004,0 7.98699999999997,0 C9.072,0 10.11,0.21599999999989 11.101,0.6389999999999 C13.0839999999999,1.4849999999999 14.518,2.91599999999994 15.361,4.88400000000001 C15.7859999999999,5.875 16,6.90599999999995 16,7.99099999999999 C16,9.077 15.7859999999999,10.116 15.361,11.107 ZM14.0839999999999,4.47299999999996 C13.454,3.39599999999996 12.596,2.53999999999996 11.5119999999999,1.9079999999999 C10.4349999999999,1.27999999999997 9.255,0.96299999999997 7.98699999999997,0.96299999999997 C6.71900000000005,0.96299999999997 5.54600000000005,1.27800000000002 4.47000000000003,1.9079999999999 C3.39499999999998,2.53800000000001 2.53399999999999,3.39400000000001 1.90699999999998,4.47299999999996 C1.28300000000002,5.54700000000003 0.971,6.72199999999998 0.971,7.99099999999999 C0.971,8.94499999999994 1.15100000000001,9.86599999999999 1.52199999999999,10.731 C1.89499999999998,11.5989999999999 2.39300000000003,12.354 3.01800000000003,12.98 C3.64400000000001,13.606 4.39200000000005,14.1010000000001 5.25800000000004,14.4770000000001 C6.12400000000002,14.8530000000001 7.03399999999999,15.037 7.98699999999997,15.037 C9.255,15.037 10.4349999999999,14.72 11.5119999999999,14.0920000000001 C12.596,13.46 13.456,12.605 14.0839999999999,11.528 C14.716,10.443 15.029,9.26099999999997 15.029,7.99099999999999 C15.029,6.72199999999998 14.7140000000001,5.54899999999998 14.0839999999999,4.47299999999996 ZM10.27,11.0719999999999 C10.27,11.0719999999999 7.65499999999997,8.45499999999993 7.65499999999997,8.45499999999993 C7.54999999999995,8.34999999999991 7.50599999999997,8.21900000000005 7.52300000000002,8.06099999999992 C7.52300000000002,8.03500000000008 7.50599999999997,8 7.50599999999997,7.99099999999999 C7.50599999999997,7.99099999999999 7.50599999999997,3.38699999999994 7.50599999999997,3.38699999999994 C7.50599999999997,3.11599999999999 7.73299999999995,2.89699999999993 7.98699999999997,2.89699999999993 C8.25800000000004,2.89699999999993 8.49400000000003,3.11599999999999 8.49400000000003,3.38699999999994 C8.49400000000003,3.38699999999994 8.49400000000003,7.92100000000005 8.49400000000003,7.92100000000005 C8.49400000000003,7.92100000000005 10.944,10.3900000000001 10.944,10.3900000000001 C11.1319999999999,10.579 11.145,10.8710000000001 10.944,11.0719999999999 C10.769,11.2470000000001 10.4450000000001,11.2470000000001 10.27,11.0719999999999 Z "/>
</svg>
