<?xml version="1.0" encoding="utf-8"?>
<!DOCTYPE svg PUBLIC "-//W3C//DTD SVG 1.1//EN" "http://www.w3.org/Graphics/SVG/1.1/DTD/svg11.dtd">
<svg version="1.1" baseProfile="full"
 xmlns="http://www.w3.org/2000/svg"
 xmlns:xlink="http://www.w3.org/1999/xlink"
 xmlns:ev="http://www.w3.org/2001/xml-events" 
  height="16px" 
  width="18px" 
>
<path fill="rgb( 0, 92, 169 )"
 d="M16.759,8.4079999999999 C16.703,8.43499999999995 16.644,8.44800000000009 16.584,8.44800000000009 C16.487,8.44800000000009 16.391,8.41200000000003 16.314,8.34500000000003 C16.299,8.33200000000011 15.542,7.67900000000009 14.648,7.67900000000009 C14.14,7.67900000000009 13.675,7.89599999999996 13.263,8.32199999999989 C13.184,8.404 13.074,8.4559999999999 12.968,8.44800000000009 C12.856,8.44800000000009 12.755,8.40100000000007 12.677,8.31799999999998 C12.672,8.3119999999999 11.979,7.58300000000008 11.076,7.58300000000008 C10.596,7.58300000000008 9.99000000000001,7.7940000000001 9.71899999999999,8.20399999999995 C9.71899999999999,8.20399999999995 9.71899999999999,12.1400000000001 9.71899999999999,12.1400000000001 C9.71899999999999,12.1400000000001 9.20999999999998,12.367 9.02600000000001,12.367 C8.97000000000003,12.367 8.87400000000002,12.357 8.87400000000002,12.3420000000001 C8.87400000000002,12.3420000000001 8.87400000000002,8.20399999999995 8.87400000000002,8.20399999999995 C8.33300000000003,7.7940000000001 7.95100000000002,7.58300000000008 7.47199999999998,7.58300000000008 C6.57299999999998,7.58300000000008 5.84399999999999,8.30999999999995 5.83699999999999,8.31700000000001 C5.75900000000001,8.40000000000009 5.65199999999999,8.44699999999989 5.541,8.44800000000009 C5.43000000000001,8.46199999999999 5.32100000000003,8.40300000000002 5.24200000000002,8.32199999999989 C4.82999999999998,7.89599999999996 4.363,7.67900000000009 3.85599999999999,7.67900000000009 C2.95699999999999,7.67900000000009 2.197,8.33799999999997 2.18900000000002,8.34500000000003 C2.06599999999997,8.45399999999995 1.89100000000002,8.48000000000002 1.743,8.4079999999999 C1.59500000000003,8.33699999999999 1.5,8.18499999999995 1.5,8.01700000000005 C1.5,3.596 4.97699999999998,0.00099999999998 9.25200000000001,0.00099999999998 C13.526,0.00099999999998 17.002,3.596 17.002,8.01600000000008 C17.002,8.18499999999995 16.907,8.33799999999997 16.759,8.4079999999999 ZM2.38,7.19000000000005 C2.76900000000001,6.99000000000001 3.28399999999999,6.79099999999994 3.85599999999999,6.79099999999994 C4.298,6.79099999999994 4.714,6.87699999999995 5.10000000000002,7.0920000000001 C5.10500000000002,7.09500000000003 5.11000000000001,7.09799999999996 5.11500000000001,7.10100000000011 C5.27499999999998,4.48700000000008 6.12299999999999,2.30700000000002 7.315,1.15900000000011 C4.70100000000002,1.96299999999997 2.697,4.31400000000008 2.38,7.19000000000005 ZM8.87400000000002,2.16100000000006 C8.87400000000002,2.16100000000006 8.87400000000002,2.16100000000006 8.87400000000002,2.16100000000006 C8.87400000000002,2.16100000000006 8.87400000000002,1.20499999999993 8.87400000000002,1.20499999999993 C7.21699999999998,1.60500000000002 6.16500000000002,4.0809999999999 5.964,7.11500000000001 C6.34899999999999,6.88699999999994 6.87599999999998,6.71900000000005 7.47199999999998,6.71900000000005 C7.95499999999998,6.71900000000005 8.33300000000003,6.85599999999999 8.87400000000002,7.12699999999995 C8.87400000000002,7.12699999999995 8.87400000000002,2.16100000000006 8.87400000000002,2.16100000000006 ZM9.71899999999999,1.20499999999993 C9.71899999999999,1.20499999999993 9.71899999999999,2.16100000000006 9.71899999999999,2.16100000000006 C9.71899999999999,2.16100000000006 9.71899999999999,7.12799999999993 9.71899999999999,7.12799999999993 C9.99000000000001,6.85599999999999 10.594,6.69499999999994 11.076,6.69499999999994 C11.681,6.69499999999994 12.178,6.89200000000005 12.565,7.12400000000002 C12.573,7.12899999999991 12.581,7.13300000000004 12.587,7.13799999999992 C12.388,4.09400000000005 11.106,1.60599999999999 9.71899999999999,1.20499999999993 ZM11.248,1.17000000000007 C12.432,2.31999999999994 13.244,4.48900000000003 13.404,7.09099999999989 C13.79,6.87799999999993 14.205,6.81600000000003 14.647,6.81600000000003 C15.218,6.81600000000003 15.734,7.00099999999998 16.122,7.20100000000002 C15.807,4.33699999999999 13.848,1.98299999999995 11.248,1.17000000000007 ZM3.07299999999998,10.578 C3.09899999999999,10.1189999999999 3.48399999999998,9.75600000000009 3.92500000000001,9.77500000000009 C4.38999999999999,9.7940000000001 4.75200000000001,10.2 4.726,10.674 C4.69999999999999,11.1569999999999 4.30900000000003,11.527 3.851,11.499 C3.38999999999999,11.472 3.04599999999999,11.0640000000001 3.07299999999998,10.578 ZM15.049,13.9300000000001 C15.041,13.9300000000001 15.033,13.9300000000001 15.025,13.9300000000001 C14.895,13.923 14.763,13.8800000000001 14.641,13.8299999999999 C13.87,13.5150000000001 13.097,13.2059999999999 12.335,12.8720000000001 C12.143,12.787 11.958,12.7449999999999 11.776,12.7449999999999 C11.549,12.7449999999999 11.327,12.809 11.106,12.9359999999999 C10.474,13.297 9.83699999999999,13.6479999999999 9.21199999999999,14.021 C9.01400000000001,14.1379999999999 8.82299999999998,14.193 8.63200000000001,14.193 C8.43700000000001,14.193 8.24200000000002,14.127 8.04000000000002,14.0060000000001 C7.10300000000001,13.4459999999999 6.15600000000001,12.8900000000001 5.21100000000001,12.3430000000001 C4.93299999999999,12.183 4.75099999999998,11.941 4.75099999999998,11.597 C4.75,11.1659999999999 5.23099999999999,10.6210000000001 5.779,10.924 C6.36099999999999,11.2460000000001 7.63400000000001,11.991 8.42599999999999,12.4780000000001 C8.62599999999998,12.6010000000001 8.815,12.663 9.005,12.663 C9.17399999999998,12.663 10.532,12.0889999999999 10.942,11.8879999999999 C11.189,11.768 11.406,11.703 11.651,11.703 C11.852,11.703 12.056,11.7460000000001 12.269,11.837 C13.183,12.2260000000001 14.114,12.5709999999999 15.038,12.9359999999999 C15.125,12.971 15.216,13.0039999999999 15.291,13.058 C15.455,13.175 15.514,13.4069999999999 15.449,13.616 C15.39,13.8019999999999 15.243,13.9300000000001 15.049,13.9300000000001 ZM3.61700000000002,12.931 C3.61700000000002,12.931 2.61000000000001,12.3530000000001 2.18099999999998,12.0989999999999 C2.08800000000002,12.0440000000001 1.99200000000002,11.991 1.91300000000001,11.9179999999999 C1.73899999999998,11.7550000000001 1.709,11.4770000000001 1.82999999999998,11.2719999999999 C1.94900000000001,11.0709999999999 2.19999999999999,10.981 2.42399999999998,11.0719999999999 C2.53500000000003,11.1179999999999 2.63799999999998,11.184 2.743,11.2460000000001 C3.483,11.6780000000001 4.22300000000001,12.1120000000001 4.96300000000002,12.5450000000001 C4.99900000000002,12.5699999999999 5.03500000000003,12.5940000000001 5.07400000000001,12.617 C5.07400000000001,12.617 5.358,12.7809999999999 5.358,12.7809999999999 C5.512,12.8699999999999 5.67000000000002,12.962 5.82600000000002,13.0530000000001 C6.58800000000002,13.5 7.351,13.9490000000001 8.11099999999999,14.402 C8.55399999999997,14.6659999999999 8.94999999999999,14.6769999999999 9.38799999999998,14.4069999999999 C9.93900000000002,14.067 10.512,13.7670000000001 11.069,13.4380000000001 C11.527,13.1690000000001 11.978,13.116 12.484,13.328 C13.426,13.721 14.383,14.078 15.334,14.4459999999999 C15.703,14.588 15.811,14.6700000000001 15.844,14.95 C15.844,14.95 16.316,14.95 16.316,14.95 C16.538,14.95 16.718,15.136 16.718,15.365 C16.718,15.365 16.718,15.5840000000001 16.718,15.5840000000001 C16.718,15.8130000000001 16.538,15.999 16.316,15.999 C16.316,15.999 1.39800000000002,15.999 1.39800000000002,15.999 C1.17599999999999,15.999 0.99599999999998,15.8130000000001 0.99599999999998,15.5840000000001 C0.99599999999998,15.5840000000001 0.99599999999998,15.365 0.99599999999998,15.365 C0.99599999999998,15.136 1.17599999999999,14.95 1.39800000000002,14.95 C1.39800000000002,14.95 2.41399999999999,14.95 2.41399999999999,14.95 C2.41399999999999,14.95 3.61700000000002,12.931 3.61700000000002,12.931 ZM13.914,14.95 C13.463,14.7750000000001 13.009,14.5830000000001 12.566,14.3810000000001 C12.135,14.183 11.735,14.21 11.338,14.432 C11.017,14.6120000000001 10.697,14.7750000000001 10.379,14.95 C10.379,14.95 13.914,14.95 13.914,14.95 ZM7.209,14.95 C6.20400000000001,14.356 4.19900000000001,13.22 4.19900000000001,13.22 C4.19900000000001,13.22 3.21699999999998,14.95 3.21699999999998,14.95 C3.21699999999998,14.95 7.209,14.95 7.209,14.95 Z "/>
</svg>
